<svg xmlns="http://www.w3.org/2000/svg" viewBox="0 0 375.2 555"><defs><style>.cls-1{fill:#51e3c2;}</style></defs><title>Ресурс 2</title><g id="Слой_2" data-name="Слой 2"><g id="Layer_1" data-name="Layer 1"><path class="cls-1" d="M345.1,555h-69c-34.5,0-45.8-4.5-54.8-28.5l-33.8-90C180.7,420.7,170.3,414,153,414H139.5V525.8c0,21.8-7.5,29.2-29.2,29.2H28.5C6.7,555,0,547.5,0,525.8V29.2C.1,7.5,6.9,0,28.6,0h81.8c21.8,0,29.2,7.5,29.2,29.2V300h15.8l63-108c12-22.5,21.8-27,54-27h66.8c30,0,36.8,14.2,23.2,36.8L277.6,347.3c9,7.5,17.2,18.8,24.8,33.8l66,135.8C381.9,543,375.9,555,345.1,555Z"/></g></g></svg>