<?xml version="1.0" encoding="utf-8"?>
<!-- Generator: Adobe Illustrator 19.2.1, SVG Export Plug-In . SVG Version: 6.00 Build 0)  -->
<svg version="1.1" id="Layer_1" xmlns="http://www.w3.org/2000/svg" xmlns:xlink="http://www.w3.org/1999/xlink" x="0px" y="0px"
	 viewBox="0 0 40 47.5" style="enable-background:new 0 0 40 47.5;" xml:space="preserve">
<path d="M39.2,37c-0.7,1.7-1.6,3.2-2.6,4.6c-1.3,1.9-2.4,3.2-3.3,4c-1.3,1.2-2.7,1.8-4.2,1.9c-1.1,0-2.4-0.3-3.9-0.9
	c-1.5-0.6-2.9-0.9-4.2-0.9c-1.3,0-2.8,0.3-4.3,0.9c-1.5,0.6-2.8,0.9-3.7,1c-1.4,0.1-2.9-0.6-4.3-1.9c-0.9-0.8-2.1-2.2-3.4-4.1
	c-1.5-2.1-2.7-4.5-3.6-7.2c-1-3-1.5-5.8-1.5-8.6c0-3.2,0.7-5.9,2.1-8.2c1.1-1.8,2.5-3.3,4.3-4.4s3.7-1.6,5.8-1.7
	c1.1,0,2.7,0.4,4.5,1.1c1.9,0.7,3.1,1.1,3.6,1.1c0.4,0,1.7-0.4,4-1.2c2.1-0.8,3.9-1.1,5.4-1c4,0.3,7,1.9,9,4.7
	c-3.6,2.2-5.3,5.2-5.3,9.1c0,3,1.1,5.6,3.3,7.6c1,0.9,2.1,1.6,3.3,2.2C39.7,35.6,39.5,36.3,39.2,37L39.2,37z M30,1
	c0,2.4-0.9,4.6-2.6,6.6c-2.1,2.4-4.6,3.8-7.3,3.6c0-0.3-0.1-0.6-0.1-0.9c0-2.3,1-4.7,2.8-6.7c0.9-1,2-1.9,3.4-2.5
	c1.4-0.7,2.6-1,3.8-1.1C30,0.3,30,0.6,30,1L30,1z"/>
</svg>
