<?xml version="1.0" encoding="utf-8"?>
<!-- Generator: Adobe Illustrator 19.2.1, SVG Export Plug-In . SVG Version: 6.00 Build 0)  -->
<svg version="1.1" id="Layer_1" xmlns="http://www.w3.org/2000/svg" xmlns:xlink="http://www.w3.org/1999/xlink" x="0px" y="0px"
	 viewBox="0 0 1938.2 2252" style="enable-background:new 0 0 1938.2 2252;" xml:space="preserve">
<style type="text/css">
	.st0{fill:#AF7EEB;}
	.st1{fill-rule:evenodd;clip-rule:evenodd;fill:#AF7EEB;}
</style>
<g>
	<path class="st0" d="M704.5,54v67.5c0,24-8.2,32.2-32.2,32.2h-198v87h158.2c24,0,32.2,8.2,32.2,31.5v67.5c0,24-8.2,32.2-32.2,32.2
		H474.3v151.5c0,23.2-7.5,31.5-31.5,31.5H358c-24,0-32.2-8.2-32.2-31.5V54c0-23.2,8.2-31.5,32.2-31.5h314.2
		C696.3,22.5,704.5,30.8,704.5,54z"/>
	<path class="st0" d="M1029.3,29.2V84c0,22.5-6.7,30-29.2,30c-36.8,0-51,15.8-51,48v3h51.8c21.8,0,28.5,7.5,28.5,28.5v56.2
		c0,21.8-6.7,29.2-28.5,29.2H949v247.5c0,21-7.5,28.5-29.2,28.5h-81c-22.5,0-29.2-7.5-29.2-28.5V279h-24.8
		c-21.8,0-28.5-7.5-28.5-29.2v-56.2c0-21,6.8-28.5,28.5-28.5h24.8v-1.5C809.5,51,874.8,0.8,986.5,0h13.5
		C1022.5,0,1029.3,7.5,1029.3,29.2z"/>
</g>
<path class="st1" d="M1618.6,248.9c-114.6-7.1-192,171.5-342,109c-114.1-47.6-219.3-52.5-323,28c-103.4,80.3-254.9,64.4-395.9,27
	c-137.3-36.5-237.1,99-237.1,99S261,585,153,642C98.1,671,35.4,743.4,0,788v1378.2c81.4,204.9,239.3-17,254.6-52.3
	c78.5-181.7,220.1-218.4,321-183c125,43.9,264,40.5,367-32c121.1-85.2,228.4-101.9,417-31c194.3,73,257.6-19.7,278-70
	c3.8-9.4,111.6-309.8,255.6-213.7c16.6,11.1,31.6,17.2,45,18.8V123.4C1911.7,62.7,1770.2,258.3,1618.6,248.9z"/>
</svg>
