<?xml version="1.0" encoding="utf-8"?>
<!-- Generator: Adobe Illustrator 19.2.1, SVG Export Plug-In . SVG Version: 6.00 Build 0)  -->
<svg version="1.1" id="Layer_1" xmlns="http://www.w3.org/2000/svg" xmlns:xlink="http://www.w3.org/1999/xlink" x="0px" y="0px"
	 viewBox="0 0 1476 636" style="enable-background:new 0 0 1476 636;" xml:space="preserve">
<style type="text/css">
	.st0{fill-rule:evenodd;clip-rule:evenodd;fill:#AE7DEA;}
</style>
<g>
	<g>
		<path class="st0" d="M1467.2,40.9c-22.6-50.1-71.2-48.4-121.7-25.6c-50.5,22.8-83.9,58.2-61.2,108.3
			c22.6,50.1,81.9,72.3,132.5,49.4C1467.2,150.2,1489.8,91,1467.2,40.9z M68.5,463.3c-50.5,22.8-83.9,58.2-61.2,108.3
			c22.6,50.1,81.9,72.3,132.5,49.4c50.5-22.8,73.2-82,50.5-132.1C167.6,438.8,119,440.5,68.5,463.3z M1006,108
			c-145.8,0-358.2,199.7-234,276c119.6,73.5,88.2,252,234,252s264-118.2,264-264C1270,226.2,1151.8,108,1006,108z"/>
	</g>
</g>
</svg>
