<?xml version="1.0" encoding="utf-8"?>
<!-- Generator: Adobe Illustrator 19.2.1, SVG Export Plug-In . SVG Version: 6.00 Build 0)  -->
<svg version="1.1" id="Layer_1" xmlns="http://www.w3.org/2000/svg" xmlns:xlink="http://www.w3.org/1999/xlink" x="0px" y="0px"
	 viewBox="0 0 9 15.9" style="enable-background:new 0 0 9 15.9;" xml:space="preserve">
<style type="text/css">
	.st0{clip-path:url(#SVGID_2_);}
</style>
<g>
	<defs>
		<rect id="SVGID_1_" y="0" width="9" height="15.9"/>
	</defs>
	<clipPath id="SVGID_2_">
		<use xlink:href="#SVGID_1_"  style="overflow:visible;"/>
	</clipPath>
	<path class="st0" d="M8.7,0H6.5c-2.4,0-4,1.5-4,3.9v1.8H0.3C0.2,5.8,0,5.9,0,6.1v2.6C0,8.9,0.2,9,0.3,9h2.2v6.6
		c0,0.2,0.2,0.3,0.3,0.3h2.8C5.9,16,6,15.9,6,15.7V9h2.5c0.2,0,0.3-0.1,0.3-0.3V6.1c0-0.1,0-0.2-0.1-0.2c-0.1,0-0.1-0.1-0.1-0.1H6
		V4.2c0-0.7,0.2-1.1,1.2-1.1h1.5C8.8,3.1,9,3,9,2.8V0.3C9,0.1,8.8,0,8.7,0"/>
</g>
</svg>
