<?xml version="1.0" encoding="utf-8"?>
<!-- Generator: Adobe Illustrator 19.2.1, SVG Export Plug-In . SVG Version: 6.00 Build 0)  -->
<svg version="1.1" id="Layer_1" xmlns="http://www.w3.org/2000/svg" xmlns:xlink="http://www.w3.org/1999/xlink" x="0px" y="0px"
	 viewBox="0 0 14 14" style="enable-background:new 0 0 14 14;" xml:space="preserve">
<g>
	<circle cx="7" cy="7" r="2.4"/>
	<path d="M10.1,0H3.9C1.7,0,0,1.7,0,3.9v6.3C0,12.3,1.7,14,3.9,14h6.3c2.1,0,3.9-1.7,3.9-3.9V3.9C14,1.7,12.3,0,10.1,0z M7,10.6
		C5,10.6,3.4,9,3.4,7C3.4,5,5,3.4,7,3.4S10.6,5,10.6,7C10.6,9,9,10.6,7,10.6z M11.4,3.9c-0.2,0.2-0.4,0.3-0.6,0.3
		c-0.2,0-0.5-0.1-0.6-0.3C9.9,3.7,9.8,3.5,9.8,3.3c0-0.2,0.1-0.5,0.3-0.6c0.2-0.2,0.4-0.3,0.6-0.3c0.2,0,0.5,0.1,0.6,0.3
		c0.2,0.2,0.3,0.4,0.3,0.6C11.7,3.5,11.6,3.7,11.4,3.9z"/>
</g>
</svg>
