<?xml version="1.0" encoding="utf-8"?>
<!-- Generator: Adobe Illustrator 19.2.1, SVG Export Plug-In . SVG Version: 6.00 Build 0)  -->
<svg version="1.1" id="Layer_1" xmlns="http://www.w3.org/2000/svg" xmlns:xlink="http://www.w3.org/1999/xlink" x="0px" y="0px"
	 viewBox="0 0 50 40.9" style="enable-background:new 0 0 50 40.9;" xml:space="preserve">
<style type="text/css">
	.st0{fill:none;stroke:#000000;stroke-miterlimit:10;}
</style>
<path class="st0" d="M49.5,15.1C49.5,7,43,0.5,34.9,0.5c-3.8,0-7.3,1.5-9.9,3.9c-2.6-2.4-6.1-3.9-9.9-3.9C7,0.5,0.5,7,0.5,15.1
	c0,4.7,2.2,8.9,5.7,11.6l0,0L6.6,27c0.2,0.1,0.3,0.2,0.5,0.4l18.2,12.9l18.4-13.4l0,0C47.2,24.2,49.5,19.9,49.5,15.1z"/>
<polygon class="st0" points="36.6,15.7 26.9,15.7 24.6,7.8 22.2,15.7 12.6,15.7 20.2,21.6 17.1,30.4 24.6,24.6 32.1,30.4 29,21.6 
	"/>
</svg>
