<?xml version="1.0" encoding="utf-8"?>
<!-- Generator: Adobe Illustrator 19.2.1, SVG Export Plug-In . SVG Version: 6.00 Build 0)  -->
<svg version="1.1" id="Layer_1" xmlns="http://www.w3.org/2000/svg" xmlns:xlink="http://www.w3.org/1999/xlink" x="0px" y="0px"
	 viewBox="0 0 24.1 14" style="enable-background:new 0 0 24.1 14;" xml:space="preserve">
<path d="M0.5,2.9c0.9,2,2.4,4.3,4.3,7.1c0.7,0.8,1.2,1.3,1.6,1.7c0.4,0.4,0.9,0.8,1.5,1.2c0.6,0.5,1.3,0.7,2.1,0.9s1.5,0.2,2.5,0.2
	c0.3,0,0.5,0,0.7,0c0.2,0,0.4-0.1,0.6-0.3c0.2-0.2,0.3-0.4,0.4-0.8l0.2-1.5c0.2-0.5,0.4-0.6,0.8-0.6c0.4,0.1,0.7,0.2,0.9,0.5
	c0.3,0.5,0.8,1.1,1.5,1.8c0.8,0.7,1.5,1,2,1h3.9c0.4,0,0.5-0.3,0.7-0.6c0.1-0.3,0-0.7-0.2-1.2c-0.6-0.9-1.6-1.9-3.1-3.3
	c-0.7-0.7-0.5-1.5,0.4-2.6c0.7-0.8,1.5-1.8,2.2-2.9c0.8-1.2,1-1.9,0.7-2.3c-0.2-0.2-0.3-0.2-0.4-0.2s-0.3,0-0.8,0h-3.6
	c-0.4,0-0.6,0-0.7,0.1s-0.2,0.2-0.4,0.6c0,0-1.3,3.6-2.9,5C15,6.6,15,6.8,14.6,6.8C14.1,6.8,14,5.5,14,5c0-0.5,0-0.9,0-1.3
	c0.1-0.5,0.1-0.9,0.2-1.3c0.1-0.5,0.1-0.7,0.1-0.9c0-0.9-0.6-1.4-1.8-1.4c0,0-0.3,0-0.9-0.1S10.7,0,10.3,0C8.9,0,8,0.3,7.8,0.9
	c1,0.3,1.5,1.1,1.5,2.3c0,1.9-0.1,2.9-0.2,2.9C8.9,6.9,8.5,7,7.9,6.4C7,5.2,6,3.5,5,1.3C4.8,0.9,4.5,0.6,4.1,0.7c-0.2,0-0.6,0-1.5,0
	s-1.5,0-1.9,0C0.4,0.7,0.2,0.8,0,0.9C0,1.5,0.2,2.2,0.5,2.9z"/>
</svg>
