<svg xmlns="http://www.w3.org/2000/svg" xmlns:xlink="http://www.w3.org/1999/xlink" width="1447" height="1516" viewBox="0 0 1447 1516"><defs><path id="jnkja" d="M500.77 801.87c-39.1 145.9-189.07 232.49-334.97 193.4C19.9 956.16-46.44 842-22 690 2.17 539.84 173.1 438.91 319 478c145.9 39.1 220.86 177.97 181.77 323.87z"/><path id="jnkjb" d="M1116.57 801.76c17.74-16.61 52.42-25.5 64.43-1.42 10.85 21.74 13.45 49.05-4.28 65.66a44 44 0 0 1-60.15-64.24z"/><path id="jnkjc" d="M129 1361a53 53 0 1 1 0 106 53 53 0 0 1 0-106z"/><path id="jnkjd" d="M1229 1345c105.49 0 191 85.51 191 191s-85.51 191-191 191-191-85.51-191-191 85.51-191 191-191z"/><path id="jnkje" d="M1080.5 211c81.46 0 158.98 52.84 147.5 147.5-9.81 80.87-66.04 147.5-147.5 147.5S933 439.96 933 358.5c0-42.06 17.6-80.01 45.85-106.88A147 147 0 0 1 1080.5 211z"/></defs><g><g transform="translate(27 -211)"><use fill="#51e3c2" xlink:href="#jnkja"/></g><g transform="translate(27 -211)"><use fill="#51e3c2" xlink:href="#jnkjb"/></g><g transform="translate(27 -211)"><use fill="#51e3c2" xlink:href="#jnkjc"/></g><g transform="translate(27 -211)"><use fill="#51e3c2" xlink:href="#jnkjd"/></g><g transform="translate(27 -211)"><use fill="#51e3c2" xlink:href="#jnkje"/></g></g></svg>