<svg xmlns="http://www.w3.org/2000/svg" viewBox="0 0 867.9 580.1"><defs><style>.cls-1{fill:#af7eeb;}</style></defs><title>Ресурс 1</title><g id="Слой_2" data-name="Слой 2"><g id="Layer_1" data-name="Layer 1"><path class="cls-1" d="M428.6,167.7c0,51.6-16.2,86.2-55.4,113.1v3.1c49.2,21.5,77.7,65.4,77.7,132.3,0,99.3-80.8,152.4-189.3,152.4H33.1C8.5,568.6,0,560.1,0,536.2V54.5c0-24.6,8.5-33,33.1-33H258.6C364.7,21.5,428.6,73.8,428.6,167.7Z"/><path class="cls-1" d="M642.5,29.2V161.5c16.2-2.3,33.1-4.6,52.3-4.6,118.5,0,173.1,60.8,173.1,165.4v83.1c0,113.1-61.6,174.7-187.8,174.7-67.7,0-123.1-13.9-151.6-26.2-26.2-12.3-30-19.2-30-45.4V29.2c0-22.3,7.7-29.2,30-29.2h83.9C634.8-.1,642.5,6.8,642.5,29.2Z"/></g></g></svg>