<svg xmlns="http://www.w3.org/2000/svg" xmlns:xlink="http://www.w3.org/1999/xlink" width="648" height="595" viewBox="0 0 648 595"><defs><path id="ljlua" d="M204.12 1111.65c96.07.04 153.47-34.6 246.27-149.4 91.84-113.6 203 62.02 205.8 188.46 19.67 184.8-83.67 487.66-175.36 319.29-91.7-168.37-266.07-164.15-266.07-164.15h-6.5c-2.03 1.81-6 3.82-12.45 6.04-33.71 11.63 27.32 119.62 39.59 147.48 12.26 27.86-7.37 43.76-59.08 43.78-51.71.03-65.68-33.74-65.68-33.74l-15.19-94.7-1.13-7.39c-3.08-20.16 8.63-44.73 18.7-61.42l-34.01.02c-71.39.04-67.46-67.52-67.46-67.52l.03-66.78c.03-60.44 69.82-58.38 69.82-58.38s26.29-1.63 122.72-1.6z"/></defs><g><g transform="translate(-11 -925)"><use fill="#fb5b71" xlink:href="#ljlua"/></g></g></svg>