<svg xmlns="http://www.w3.org/2000/svg" width="281" height="281" viewBox="0 0 281 281">
  <metadata><?xpacket begin="﻿" id="W5M0MpCehiHzreSzNTczkc9d"?>
<x:xmpmeta xmlns:x="adobe:ns:meta/" x:xmptk="Adobe XMP Core 5.6-c142 79.160924, 2017/07/13-01:06:39        ">
   <rdf:RDF xmlns:rdf="http://www.w3.org/1999/02/22-rdf-syntax-ns#">
      <rdf:Description rdf:about=""/>
   </rdf:RDF>
</x:xmpmeta>
                                                                                                    
                                                                                                    
                                                                                                    
                                                                                                    
                                                                                                    
                                                                                                    
                                                                                                    
                                                                                                    
                                                                                                    
                                                                                                    
                                                                                                    
                                                                                                    
                                                                                                    
                                                                                                    
                                                                                                    
                                                                                                    
                                                                                                    
                                                                                                    
                                                                                                    
                                                                                                    
                           
<?xpacket end="w"?></metadata>
<defs>
    <style>
      .cls-1 {
        fill: #fff;
        fill-rule: evenodd;
      }
    </style>
  </defs>
  <path id="Ellipse_11_copy_4" data-name="Ellipse 11 copy 4" class="cls-1" d="M766,15273c-3.866,0-7-14.1-7-18a7,7,0,0,1,14,0C773,15258.9,769.866,15273,766,15273Zm-7,231c-3.866,0-7,14.1-7,18a7,7,0,0,0,14,0C766,15518.1,762.866,15504,759,15504Zm87.646-194.7c-2.734-2.7,5.044-14.9,7.778-17.7a7,7,0,1,1,9.9,9.9C861.59,15304.3,849.379,15312,846.646,15309.3Zm-168.292,158.4c-2.733-2.7-14.944,5-17.677,7.8a7,7,0,1,0,9.9,9.9C673.31,15482.6,681.088,15470.4,678.354,15467.7Zm199.657-75.7c0-3.9,14.134-7,18-7a7,7,0,1,1,0,14C892.145,15399,878.011,15395.9,878.011,15392Zm-231-7c0-3.9-14.134-7-18-7a7,7,0,0,0,0,14C632.877,15392,647.011,15388.9,647.011,15385Zm194.69,87.7c2.733-2.8,14.944,5,17.677,7.7a7,7,0,0,1,0,9.9,6.883,6.883,0,0,1-9.9,0C846.745,15487.6,838.967,15475.4,841.7,15472.7Zm-158.392-168.3c2.733-2.8-5.045-15-7.779-17.7a7,7,0,0,0-9.9,9.9C668.365,15299.3,680.575,15307.1,683.309,15304.4Z" transform="translate(-622 -15248)"/>
</svg>
