<?xml version="1.0" encoding="utf-8"?>
<!-- Generator: Adobe Illustrator 19.2.1, SVG Export Plug-In . SVG Version: 6.00 Build 0)  -->
<svg version="1.1" id="Layer_1" xmlns="http://www.w3.org/2000/svg" xmlns:xlink="http://www.w3.org/1999/xlink" x="0px" y="0px"
	 viewBox="0 0 1667.6 2088.8" style="enable-background:new 0 0 1667.6 2088.8;" xml:space="preserve">
<style type="text/css">
	.st0{fill-rule:evenodd;clip-rule:evenodd;fill:#FFD669;}
	.st1{fill:#FFD669;}
</style>
<g>
	<g>
		<path class="st0" d="M1410.3,295.9c-69.7,69.6-182.6,69.6-252.3,0c-69.7-69.6-73.8-202.5,8.5-252.8
			c74.1-45.3,174.1-68.9,243.7,0.7C1479.9,113.5,1479.9,226.3,1410.3,295.9z"/>
	</g>
</g>
<g>
	<path class="st1" d="M445.5,408v112.5c0,129-82.5,210-230.2,210h-183C8.2,730.5,0,722.2,0,699V229.5C0,206.2,8.2,198,32.2,198h183
		C363,198,445.5,278.2,445.5,408z"/>
	<path class="st1" d="M698.2,329.2c18.8,0,36,1.5,50.2,2.2V204c0-21,7.5-28.5,29.2-28.5h81.8c21.8,0,29.2,7.5,29.2,28.5v468.8
		c0,24.8-6,32.2-31.5,42.8c-32.2,12.8-78,26.2-154.5,26.2c-119.2,0-174-60-174-162v-81C528.7,388.5,587.2,329.2,698.2,329.2z"/>
</g>
<path class="st0" d="M1374.3,817.9c-50-50.1-65.5-109.8-15.5-159.8c50-50.1,125.8-42.8,193.5-28.2c71.1,15.3,37.8,158.3-12.6,209.4
	C1490.1,889.7,1424.3,868,1374.3,817.9z"/>
<path class="st0" d="M1566.9,1274.4c68.8,16.3,113.5,58.9,97.3,127.7c-16.1,68.9-84.4,102.6-149.7,125.8
	c-68.5,24.4-115.5-114.7-99.6-184.7C1430.7,1274.3,1498.1,1258.1,1566.9,1274.4z"/>
<path class="st0" d="M93.3,1218.6c-50-50.1-65.5-109.8-15.5-159.8c50-50.1,112.9-18.6,179.1,1.7c68.6,21,51.8,129.5,1.8,179.6
	C208.8,1290.1,143.3,1268.7,93.3,1218.6z"/>
<path class="st0" d="M1375.9,1976.1c0,62.3-50.4,112.7-112.7,112.7c-62.3,0-99.2-53.1-108.4-109.2c-10.2-62.5,46-116.3,108.3-116.3
	C1325.4,1863.4,1375.9,1913.9,1375.9,1976.1z"/>
</svg>
