<?xml version="1.0" encoding="utf-8"?>
<!-- Generator: Adobe Illustrator 19.2.1, SVG Export Plug-In . SVG Version: 6.00 Build 0)  -->
<svg version="1.1" id="Layer_1" xmlns="http://www.w3.org/2000/svg" xmlns:xlink="http://www.w3.org/1999/xlink" x="0px" y="0px"
	 viewBox="0 0 1280 640" style="enable-background:new 0 0 1280 640;" xml:space="preserve">
<style type="text/css">
	.st0{fill:#51E3C2;}
</style>
<g>
	<path class="st0" d="M838.8,610h-83.2c-40,0-51.6-8.5-57.7-32.3l-17.7-55.4H513.9l-17.7,55.4c-7.7,23.9-17.7,32.3-56.2,32.3h-80.8
		c-23.9,0-28.5-10.8-20.8-31.6L515.5,90.3c7.7-22.3,17.7-26.9,40-26.9h87.8c22.3,0,32.3,5.4,40,25.4l177.8,489.7
		C868.9,599.2,861.9,610,838.8,610z"/>
	<path class="st0" d="M1100.6,198c136.3,0,179.4,67.8,179.4,166.3v189.4c0,28.5-6.2,37-29.3,46.2c-30.8,13.1-82.4,21.6-152.4,21.6
		c-144.7,0-183.2-41.6-183.2-127.8c0-100.1,55.4-128.6,187.1-128.6c13.1,0,26.2,0.8,34.6,0.8v-19.2c0-25.4-11.5-39.3-43.1-39.3
		c-25.4,0-39.3,11.5-50,26.2c-10,13.9-17.7,20-42.3,10l-55.4-23.1c-20.8-9.2-27.7-20-16.2-42.3C957.4,225,1014.4,198,1100.6,198z"/>
</g>
<circle class="st0" cx="160.1" cy="549.9" r="90.1"/>
<circle class="st0" cx="80.1" cy="270.8" r="80.1"/>
</svg>
