<?xml version="1.0" encoding="utf-8"?>
<!-- Generator: Adobe Illustrator 19.2.1, SVG Export Plug-In . SVG Version: 6.00 Build 0)  -->
<svg version="1.1" id="Layer_1" xmlns="http://www.w3.org/2000/svg" xmlns:xlink="http://www.w3.org/1999/xlink" x="0px" y="0px"
	 viewBox="0 0 1938.2 2252" style="enable-background:new 0 0 1938.2 2252;" xml:space="preserve">
<style type="text/css">
	.st0{fill:#FFD669;}
	.st1{fill-rule:evenodd;clip-rule:evenodd;fill:#FFFFFF;}
	.st2{fill-rule:evenodd;clip-rule:evenodd;fill:#FFD669;}
</style>
<path class="st0" d="M0,123.4l0,1740.4c13.4-1.6,28.4-7.7,45-18.8c144-96.1,251.8,204.3,255.6,213.7c20.4,50.3,83.7,143,278,70
	c188.6-70.9,295.9-54.2,417,31c103,72.5,242,75.9,367,32c100.9-35.4,242.5,1.3,321,183c15.3,35.3,173.2,257.2,254.6,52.3V788
	c-35.4-44.6-98.1-117-153-146c-108-57-167.6-130.1-167.6-130.1s-99.8-135.5-237.1-99c-141,37.4-292.5,53.3-395.9-27
	c-103.7-80.5-208.9-75.6-323-28c-150,62.5-272-147-386.6-139.9C123.4,227.4,26.5,62.7,0,123.4z"/>
<g>
	<path class="st0" d="M1282.8-49.8v316.5c0,123-70.5,196.5-206.2,196.5c-103.5,0-165.8-46.5-195-126.8c-8.2-21.8-2.2-32.2,19.5-40.5
		l78-27.8c22.5-8.2,33-4.5,42,18c12.8,30,28.5,45.8,58.5,45.8c36.8,0,54.8-21,54.8-64.5V-49.8c0-23.2,7.5-31.5,31.5-31.5h86.2
		C1275.2-81.2,1282.8-73,1282.8-49.8z"/>
	<path class="st0" d="M1488.2,90.5v369c0,114.8-64.5,165-190.5,165c-22.5,0-30-7.5-30-29.2v-63.8c0-22.5,7.5-30,30-30
		c36.8,0,51-18.8,51-51v-360c0-21,6.8-28.5,29.2-28.5h81C1481.5,62,1488.2,69.5,1488.2,90.5z M1492.7-34v8.2
		c0,42-12.8,55.5-55.5,55.5h-37.5c-42.8,0-55.5-13.5-55.5-55.5V-34c0-42,12.8-55.5,55.5-55.5h37.5C1480-89.5,1492.7-76,1492.7-34z"
		/>
</g>
<g>
	<g>
		<path class="st1" d="M533.1,1637.1c-49.4,0-83,44.7-83,94.1c0,59.9,60.4,74.8,83.4,74.8c49.4,0,89-30,89-79.5
			C622.5,1677.1,582.5,1637.1,533.1,1637.1z M488.5,1301c-51.9,29.9-37.4,105.1-32.1,114.3c24.7,42.8,79.5,57.4,122.3,32.7
			c42.8-24.7,57.5-79.4,32.8-122.1C586.8,1283.1,531.3,1276.3,488.5,1301z M1070.5,1701c0,3.9,3.1,18,7,18s7-14.1,7-18
			c0-3.9-3.1-7-7-7S1070.5,1697.1,1070.5,1701z M1070.5,1950c-3.9,0-7,14.1-7,18s3.1,7,7,7s7-3.1,7-7S1074.4,1950,1070.5,1950z
			 M1165.9,1737.6c-2.7,2.7-10.5,14.9-7.8,17.7c2.7,2.7,14.9-5,17.7-7.8c2.7-2.7,2.7-7.2,0-9.9
			C1173.1,1734.9,1168.7,1734.9,1165.9,1737.6z M972.2,1921.5c-2.7,2.7-2.7,7.2,0,9.9c2.7,2.7,7.2,2.7,9.9,0
			c2.7-2.7,10.5-14.9,7.8-17.7C987.1,1911,974.9,1918.7,972.2,1921.5z M1207.5,1831c-3.9,0-18,3.1-18,7c0,3.9,14.1,7,18,7s7-3.1,7-7
			C1214.5,1834.1,1211.4,1831,1207.5,1831z M940.5,1824c-3.9,0-7,3.1-7,7c0,3.9,3.1,7,7,7c3.9,0,18-3.1,18-7
			C958.5,1827.1,944.4,1824,940.5,1824z M1153.2,1918.7c-2.7,2.7,5,14.9,7.8,17.7c2.7,2.7,7.2,2.7,9.9,0c2.7-2.7,2.7-7.2,0-9.9
			S1155.9,1915.9,1153.2,1918.7z M994.8,1750.4c2.7-2.7-5-14.9-7.8-17.7c-2.7-2.7-7.2-2.7-9.9,0c-2.7,2.7-2.7,7.2,0,9.9
			C979.9,1745.3,992.1,1753.1,994.8,1750.4z M1108.5,1749.1c-45.1-17.8-96.1,4.4-113.9,49.6c-17.8,45.2,4.3,96.2,49.4,114
			c45.1,17.8,91.8-10.9,109.6-56.1C1175.2,1801.8,1118.2,1752.9,1108.5,1749.1z M1153.7,1454.6c21.6-54.8-35.4-103.7-45.1-107.5
			c-45.1-17.8-96.1,4.4-113.9,49.6c-17.8,45.2,4.3,96.2,49.4,114C1089.1,1528.4,1135.8,1499.8,1153.7,1454.6z M488.5,903
			c-51.9,29.9-37.4,105.1-32.1,114.3c24.7,42.8,79.5,57.4,122.3,32.7c42.8-24.7,57.5-79.4,32.8-122.1
			C586.8,885.1,531.3,878.3,488.5,903z M1139.2,1122c34.9-34.9,27.1-90.3-7.8-125.2c-42.4-42.4-111.2-8.9-118.7-1.4
			c-34.9,34.9-34.9,91.6,0,126.6C1047.6,1157,1104.2,1157,1139.2,1122z M1115.7,766c42.8-24.7,57.5-79.4,32.8-122.1
			c-24.7-42.8-80.2-49.5-123-24.9c-51.9,29.9-37.4,105.1-32.1,114.3C1018.2,776,1072.9,790.7,1115.7,766z M495.3,454.9
			c-26.7,15.4-54.3,27.7-43.3,63c5.1,16.5-3.9,33.3,5.4,49.4c24.7,42.8,79.5,57.4,122.3,32.7c42.8-24.7,57.5-79.4,32.8-122.1
			C587.8,435.1,538.1,430.2,495.3,454.9z"/>
	</g>
</g>
<path class="st2" d="M595.5-104.1c24.7,42.8,10,97.5-32.8,122.1c-42.8,24.7-97.6,10-122.3-32.7c-9.3-16.1-6.7-27.4-5.4-49.4
	c2.2-37,16.5-47.6,43.3-63C521.1-151.8,570.8-146.9,595.5-104.1z"/>
</svg>
