<?xml version="1.0" encoding="utf-8"?>
<!-- Generator: Adobe Illustrator 19.2.1, SVG Export Plug-In . SVG Version: 6.00 Build 0)  -->
<svg version="1.1" id="Layer_1" xmlns="http://www.w3.org/2000/svg" xmlns:xlink="http://www.w3.org/1999/xlink" x="0px" y="0px"
	 viewBox="0 0 1609 1685.8" style="enable-background:new 0 0 1609 1685.8;" xml:space="preserve">
<style type="text/css">
	.st0{fill-rule:evenodd;clip-rule:evenodd;fill:#51E3C2;}
	.st1{fill:#51E3C2;}
</style>
<path class="st0" d="M1413.5,0.5c71.7-7.2,120,59.4,120,131.5s-58.4,130.5-130.5,130.5s-130.5-58.4-130.5-130.5
	S1341.4,7.7,1413.5,0.5z"/>
<g>
	<path class="st1" d="M642.4,169.8v469.5c0,23.2-8.2,31.5-31.5,31.5h-85.5c-23.2,0-31.5-8.2-31.5-31.5V466.8H348.4v172.5
		c0,23.2-7.5,31.5-31.5,31.5h-84.8c-24,0-32.2-8.2-32.2-31.5V169.8c0-24,8.2-32.2,32.2-32.2h84.8c24,0,31.5,8.2,31.5,32.2v165.8
		h145.5V169.8c0-24,8.2-32.2,31.5-32.2h85.5C634.2,137.6,642.4,145.8,642.4,169.8z"/>
	<path class="st1" d="M888.4,144.3v128.2c6.8-0.8,27.8-3,51-3c115.5,0,168.8,60,168.8,162v210.7c0,21-6.8,28.5-28.5,28.5h-82.5
		c-21,0-28.5-7.5-28.5-28.5V436.8c0-28.5-15-41.2-45-41.2c-16.5,0-32.2,2.2-35.2,3v243.7c0,21-6.8,28.5-28.5,28.5h-82.5
		c-21.8,0-28.5-7.5-28.5-28.5v-498c0-21,6.8-28.5,28.5-28.5h82.5C881.6,115.8,888.4,123.3,888.4,144.3z"/>
</g>
<path class="st0" d="M1197,1216.1c0.1-113.1,92.2-151.2,206-151.2c113.8-0.1,206.1,37.9,206,151s-92.3,204.9-206.1,205
	C1289.1,1420.9,1197,1329.2,1197,1216.1z"/>
<path class="st0" d="M3.1,1435.1c20-116.8,121.8-139.8,239.1-119.8c117.4,20,205.9,75.4,185.9,192.2
	c-20,116.8-131.3,195.2-248.7,175.2C62.1,1662.7-16.9,1551.8,3.1,1435.1z"/>
</svg>
