<?xml version="1.0" encoding="utf-8"?>
<!-- Generator: Adobe Illustrator 19.2.1, SVG Export Plug-In . SVG Version: 6.00 Build 0)  -->
<svg version="1.1" id="Layer_1" xmlns="http://www.w3.org/2000/svg" xmlns:xlink="http://www.w3.org/1999/xlink" x="0px" y="0px"
	 viewBox="0 0 1315.2 1095" style="enable-background:new 0 0 1315.2 1095;" xml:space="preserve">
<style type="text/css">
	.st0{fill-rule:evenodd;clip-rule:evenodd;fill:#FF687D;}
	.st1{fill:#FF687D;}
</style>
<g>
	<g>
		<path class="st0" d="M1218.2,228c32.6-74.1,91.4-127.8,34.2-185c-57.2-57.3-150-57.3-207.3,0c-57.2,57.3-65.1,140.8-7.9,198
			C1094.5,298.2,1191.7,288.2,1218.2,228z M1226.2,492c-49.2,0-89,39.8-89,89c0,49.2,39.8,89,89,89s89-39.8,89-89
			C1315.2,531.8,1275.4,492,1226.2,492z M86,937.9c-26.7,15.4-41.1,26.1-43.3,63c-1.3,21.9-3.9,33.3,5.4,49.4
			c24.7,42.8,79.5,57.4,122.3,32.7c42.8-24.7,57.5-79.4,32.8-122.1C178.5,918.1,128.8,913.2,86,937.9z"/>
	</g>
</g>
<g>
	<path class="st1" d="M30,100.8h88.5c22.5,0,30,7.5,30,30v472.5c0,22.5-7.5,30-30,30H30c-22.5,0-30-7.5-30-30V130.8
		C0,108.3,7.5,100.8,30,100.8z"/>
	<path class="st1" d="M399.7,147.3v8.2c0,42-13.5,55.5-55.5,55.5h-37.5c-42.8,0-56.2-13.5-56.2-55.5v-8.2c0-42,13.5-55.5,56.2-55.5
		h37.5C386.2,91.8,399.7,105.3,399.7,147.3z M395.2,271.8v333c0,21-7.5,28.5-29.2,28.5h-81.8c-21.8,0-29.2-7.5-29.2-28.5v-333
		c0-21,7.5-28.5,29.2-28.5H366C387.7,243.3,395.2,250.8,395.2,271.8z"/>
</g>
</svg>
