<?xml version="1.0" encoding="utf-8"?>
<!-- Generator: Adobe Illustrator 19.2.1, SVG Export Plug-In . SVG Version: 6.00 Build 0)  -->
<svg version="1.1" id="Layer_1" xmlns="http://www.w3.org/2000/svg" xmlns:xlink="http://www.w3.org/1999/xlink" x="0px" y="0px"
	 viewBox="0 0 60.6 40" style="enable-background:new 0 0 60.6 40;" xml:space="preserve">
<style type="text/css">
	.st0{fill:none;stroke:#000000;stroke-miterlimit:10;}
</style>
<circle class="st0" cx="20" cy="20" r="19.5"/>
<circle class="st0" cx="20" cy="20" r="14.3"/>
<g>
	<path d="M56.1,25c1.9,0,3.5,1.5,3.5,3.4c0,2.2-1.9,6.6-3.5,6.6s-3.5-4.3-3.5-6.6C52.6,26.5,54.2,25,56.1,25 M56.1,24
		c-2.5,0-4.5,2-4.5,4.4s2,7.6,4.5,7.6s4.5-5.1,4.5-7.6S58.6,24,56.1,24L56.1,24z"/>
</g>
<path class="st0" d="M42.6,3v4.6c0,2.4,2,4.4,4.5,4.4s4.5-2,4.5-4.4V3"/>
<line class="st0" x1="56.1" y1="25" x2="56.1" y2="3"/>
<polyline class="st0" points="47.1,37 47.1,12 47.1,3 "/>
</svg>
