<?xml version="1.0" encoding="utf-8"?>
<!-- Generator: Adobe Illustrator 19.2.1, SVG Export Plug-In . SVG Version: 6.00 Build 0)  -->
<svg version="1.1" id="Layer_1" xmlns="http://www.w3.org/2000/svg" xmlns:xlink="http://www.w3.org/1999/xlink" x="0px" y="0px"
	 viewBox="0 0 18 17" style="enable-background:new 0 0 18 17;" xml:space="preserve">
<style type="text/css">
	.st0{fill-rule:evenodd;clip-rule:evenodd;}
</style>
<g>
	<g>
		<path class="st0" d="M16,0h-2c-1.1,0-2,0.9-2,2v13c0,1.1,0.9,2,2,2h2c1.1,0,2-0.9,2-2V2C18,0.9,17.1,0,16,0z M4,0H2
			C0.9,0,0,0.9,0,2v13c0,1.1,0.9,2,2,2h2c1.1,0,2-0.9,2-2V2C6,0.9,5.1,0,4,0z"/>
	</g>
</g>
</svg>
