<?xml version="1.0" encoding="utf-8"?>
<!-- Generator: Adobe Illustrator 22.0.1, SVG Export Plug-In . SVG Version: 6.00 Build 0)  -->
<svg version="1.1" id="Layer_1" xmlns="http://www.w3.org/2000/svg" xmlns:xlink="http://www.w3.org/1999/xlink" x="0px" y="0px"
	 width="29px" height="41px" viewBox="0 0 29 41" style="enable-background:new 0 0 29 41;" xml:space="preserve">
<style type="text/css">
	.st0{opacity:0.6;}
	.st1{fill:#344C57;}
</style>
<g class="st0">
	<path class="st1" d="M23.3,41H5.7C2.5,41,0,38.5,0,35.4V5.6C0,2.5,2.5,0,5.7,0h17.6C26.5,0,29,2.5,29,5.6v29.7
		C29,38.4,26.4,41,23.3,41z M5.7,1C3.1,1,1,3,1,5.6v29.7C1,38,3.1,40,5.7,40h17.6c2.5,0,4.7-2.1,4.7-4.6V5.6C28,3,25.9,1,23.3,1H5.7
		z"/>
</g>
<g class="st0">
	<path class="st1" d="M14.8,38.4c-2,0-3.6-1.6-3.6-3.6c0-2,1.6-3.6,3.6-3.6c2,0,3.6,1.6,3.6,3.6C18.4,36.8,16.8,38.4,14.8,38.4z
		 M14.8,32.3c-1.4,0-2.6,1.2-2.6,2.6s1.2,2.6,2.6,2.6c1.4,0,2.6-1.2,2.6-2.6S16.3,32.3,14.8,32.3z"/>
</g>
</svg>
