<svg xmlns="http://www.w3.org/2000/svg" viewBox="0 0 399.7 541.5"><defs><style>.cls-1{fill:#ff687d;}</style></defs><title>Ресурс 1</title><g id="Слой_2" data-name="Слой 2"><g id="Layer_1" data-name="Layer 1"><path class="cls-1" d="M30,9h88.5c22.5,0,30,7.5,30,30V511.5c0,22.5-7.5,30-30,30H30c-22.5,0-30-7.5-30-30V39C0,16.5,7.5,9,30,9Z"/><path class="cls-1" d="M399.7,55.5v8.2c0,42-13.5,55.5-55.5,55.5H306.7c-42.8,0-56.2-13.5-56.2-55.5V55.5C250.5,13.5,264,0,306.7,0h37.5C386.2,0,399.7,13.5,399.7,55.5ZM395.2,180V513c0,21-7.5,28.5-29.2,28.5H284.2c-21.8,0-29.2-7.5-29.2-28.5V180c0-21,7.5-28.5,29.2-28.5H366C387.7,151.5,395.2,159,395.2,180Z"/></g></g></svg>