<?xml version="1.0" encoding="utf-8"?>
<!-- Generator: Adobe Illustrator 19.2.1, SVG Export Plug-In . SVG Version: 6.00 Build 0)  -->
<svg version="1.1" id="Layer_1" xmlns="http://www.w3.org/2000/svg" xmlns:xlink="http://www.w3.org/1999/xlink" x="0px" y="0px"
	 viewBox="0 0 70 15" style="enable-background:new 0 0 70 15;" xml:space="preserve">
<g>
	<polygon points="2.7,0.2 0,0.2 0.6,2.7 3.4,2.7 	"/>
	<rect x="12.4" y="0.2" width="2.8" height="14.6"/>
	<polygon points="25,8.9 25,8.9 21.1,0.2 18,0.2 18,14.8 20.6,14.8 20.6,5.4 20.6,5.4 24.9,14.8 27.6,14.8 27.6,0.2 25,0.2 	"/>
	<polygon points="38.7,0.2 29.4,0.2 29.4,2.7 32.6,2.7 32.6,14.8 35.4,14.8 35.4,2.7 38.7,2.7 	"/>
	<path d="M42.2,0.2l-3.6,14.6h2.7l0.8-3.1H46l0.7,3.1h2.7L45.8,0.2H42.2L42.2,0.2z M42.6,9.3L44,3.4h0l1.4,5.9H42.6L42.6,9.3z"/>
	<path d="M55.2,2.5c1,0,1.7,0.6,1.7,2.5h2.8c-0.1-3.3-1.6-5-4.5-5c-2.7,0-4.6,1.3-4.6,4.9v5.2c0,3.6,1.9,4.9,4.6,4.9
		c1.1,0,1.9-0.6,2.6-1.4l0.4,1.2h1.5V7.3H55v2.3h2v0.9c0,1.3-0.6,2-1.7,2c-1.1,0-1.8-0.4-1.8-2.1v-6C53.4,2.9,54.1,2.5,55.2,2.5z"/>
	<polygon points="64.9,12.4 64.9,8.5 68.6,8.5 68.6,6 64.9,6 64.9,2.7 69.8,2.7 69.8,0.2 62.1,0.2 62.1,14.8 70,14.8 70,12.4 	"/>
	<polygon points="8,0.2 4.3,14.8 6.9,14.8 10.6,0.2 	"/>
</g>
</svg>
