<?xml version="1.0" encoding="utf-8"?>
<!-- Generator: Adobe Illustrator 19.2.1, SVG Export Plug-In . SVG Version: 6.00 Build 0)  -->
<svg version="1.1" id="Layer_1" xmlns="http://www.w3.org/2000/svg" xmlns:xlink="http://www.w3.org/1999/xlink" x="0px" y="0px"
	 viewBox="0 0 311 249" style="enable-background:new 0 0 311 249;" xml:space="preserve">
<style type="text/css">
	.st0{fill-rule:evenodd;clip-rule:evenodd;fill:#FB5B71;}
</style>
<g>
	<g>
		<path class="st0" d="M162,128.2c0-23.9-26.5-41.3-32-56.9c-5.4-15.3,13.1-20,7-38.9c-13.6-42.5,15.7-30.9-13-30.9
			C55.5,1.4,0,56.8,0,125.2C0,193.6,55.5,249,124,249c9.9,0,14.6-10,31-33.9c10.8-15.7-19.3-22.5-16-37.9
			C141.8,163.9,162,148,162,128.2z M187,1.4c-35.6,0,15.6,34.9-7,58.9c-20.9,22.1,25,36.1,25,68.9c0,39.7-41.1,47.2-12,69.9
			c21,16.4-34.7,49.9-6,49.9c68.5,0,124-55.4,124-123.8C311,56.8,255.5,1.4,187,1.4z"/>
	</g>
</g>
</svg>
