<?xml version="1.0" encoding="utf-8"?>
<!-- Generator: Adobe Illustrator 19.2.1, SVG Export Plug-In . SVG Version: 6.00 Build 0)  -->
<svg version="1.1" id="Layer_1" xmlns="http://www.w3.org/2000/svg" xmlns:xlink="http://www.w3.org/1999/xlink" x="0px" y="0px"
	 viewBox="0 0 1410.9 890.1" style="enable-background:new 0 0 1410.9 890.1;" xml:space="preserve">
<style type="text/css">
	.st0{fill-rule:evenodd;clip-rule:evenodd;fill:#51E3C2;}
	.st1{fill:#51E3C2;}
</style>
<path class="st0" d="M1405.9,112.8c0,62.3-50.4,112.7-112.7,112.7c-62.3,0-99.2-53.1-108.4-109.2C1174.7,53.8,1230.9,0,1293.1,0
	C1355.4,0,1405.9,50.5,1405.9,112.8z"/>
<g>
	<path class="st1" d="M957.1,322.1v67.5c0,24-8.2,32.2-32.2,32.2h-198v66.8h158.2c24,0,32.2,8.2,32.2,31.5v67.5
		c0,24-8.2,32.2-32.2,32.2H726.9v72h204.8c23.2,0,31.5,7.5,31.5,31.5v68.2c0,23.2-8.2,31.5-31.5,31.5h-321c-24,0-32.2-8.2-32.2-31.5
		V322.1c0-23.2,8.2-31.5,32.2-31.5h314.2C948.9,290.6,957.1,298.9,957.1,322.1z"/>
	<path class="st1" d="M1222.6,421.9c129.8,0,188.2,74.2,188.2,164.2v41.2c0,24-10.5,39-41.2,39h-195v14.2
		c0,35.2,19.5,48.8,48.8,48.8c32.2,0,48.8-13.5,60-27.8c9.8-14.2,18-18.8,42-7.5l51.8,22.5c20.2,9.8,25.5,22.5,14.2,43.5
		c-28.5,49.5-83.2,74.2-169.5,74.2c-134.2,0-186.8-75-186.8-173.2v-66C1035.1,482.6,1101.1,421.9,1222.6,421.9z"/>
</g>
<path class="st0" d="M89,368.9C38,325.4,16.7,295.7,38.5,237.5c21.9-58.2,71.8-87.1,104.4-84.7c62.9,4.6,128,106.2,106.1,164.4
	C227.2,375.4,127.3,401.6,89,368.9z"/>
<path class="st0" d="M0.2,808.1C8.1,727-12.5,658.6,58.1,617.8c70.7-40.8,151.8,17.9,192.8,77.8c46.8,68.4,25.4,137.3-45.2,178.1
	C135,914.5-6.2,873.9,0.2,808.1z"/>
</svg>
