<?xml version="1.0" encoding="utf-8"?>
<!-- Generator: Adobe Illustrator 19.2.1, SVG Export Plug-In . SVG Version: 6.00 Build 0)  -->
<svg version="1.1" id="Layer_1" xmlns="http://www.w3.org/2000/svg" xmlns:xlink="http://www.w3.org/1999/xlink" x="0px" y="0px"
	 viewBox="0 0 1474.3 1299.6" style="enable-background:new 0 0 1474.3 1299.6;" xml:space="preserve">
<style type="text/css">
	.st0{fill:#FF687D;}
	.st1{fill-rule:evenodd;clip-rule:evenodd;fill:#FF687D;}
</style>
<path class="st0" d="M1414.2,148c0,71.9-68.1,112.4-140,112.4S1144,202.1,1144,130.2S1202.3,0,1274.2,0S1414.2,76,1414.2,148z"/>
<path class="st0" d="M85.2,522.1c-75.6-20.7-98.7-103.9-78-179.6s98.7-120.2,174.4-99.6s120.2,98.7,99.6,174.4S161,542.8,85.2,522.1
	z"/>
<g>
	<path class="st0" d="M822.8,213c115.5,0,187.5,47.2,219,131.2c7.5,21.8,2.2,33-20.2,40.5l-80.2,28.5c-23.2,6.8-32.2,3-40.5-20.2
		c-13.5-33.8-36-48.8-78-48.8c-59.3,0-82.5,25.5-82.5,78v136.5c0,52.5,23.2,78,82.5,78c42,0,66-16.5,78-48.8
		c9-23.2,18-28.5,40.5-20.2l80.2,28.5c22.5,7.5,27.7,18.8,20.2,40.5c-31.5,84-103.5,131.2-219,131.2c-147.8,0-231-80.2-231-210V423
		C591.8,293.3,675.1,213,822.8,213z"/>
	<path class="st0" d="M1299.8,355.5c93.8,0,148.5,45.8,168.8,104.2c7.5,22.5,1.5,33-20.2,40.5l-69.8,23.2
		c-22.5,7.5-32.2,2.2-41.2-20.2s-22.5-30.8-44.2-30.8c-26.2,0-39.8,15-39.8,40.5v97.5c0,25.5,14.2,40.5,39.8,40.5
		c21.8,0,35.2-8.2,44.2-30.8s18-26.2,41.2-18.8l72,21.8c21.8,6.8,29.2,18,19.5,41.2c-27,65.2-82.5,103.5-178.5,103.5
		c-123.8,0-177.8-63-177.8-165.8v-81.8C1113.8,419.3,1171.6,355.5,1299.8,355.5z"/>
</g>
<g>
	<path class="st1" d="M333.1,861.9c49.2,0,89,39.8,89,89c0,49.2-39.8,89-89,89c-49.2,0-89-39.8-89-89
		C244.1,901.8,283.9,861.9,333.1,861.9z"/>
</g>
<g>
	<path class="st1" d="M1379.4,1247.4c-69.7,69.6-182.6,69.6-252.3,0c-69.7-69.6-73.8-202.5,8.5-252.8
		c74.1-45.3,174.1-68.9,243.7,0.7C1449.1,1064.9,1449.1,1177.8,1379.4,1247.4z"/>
</g>
</svg>
