<?xml version="1.0" encoding="utf-8"?>
<!-- Generator: Adobe Illustrator 19.2.1, SVG Export Plug-In . SVG Version: 6.00 Build 0)  -->
<svg version="1.1" id="Layer_1" xmlns="http://www.w3.org/2000/svg" xmlns:xlink="http://www.w3.org/1999/xlink" x="0px" y="0px"
	 viewBox="0 0 40 40" style="enable-background:new 0 0 40 40;" xml:space="preserve">
<style type="text/css">
	.st0{fill:none;stroke:#000000;stroke-miterlimit:10;}
</style>
<g>
	<polygon points="37,36 36,36 36,31 31,31 31,30 37,30 	"/>
</g>
<path class="st0" d="M36.1,31c-3.5,5.1-9.4,8.5-16.1,8.5C9.2,39.5,0.5,30.8,0.5,20"/>
<path class="st0" d="M3.6,9.4C7.1,4,13.1,0.5,20,0.5c10.8,0,19.5,8.7,19.5,19.5"/>
<polyline class="st0" points="31,30.5 36.5,30.5 36.5,36 "/>
<polyline class="st0" points="3.6,4.1 3.6,9.6 9.1,9.6 "/>
<polyline class="st0" points="9.9,23.2 15.1,28.4 33.3,10.2 "/>
</svg>
