<svg xmlns="http://www.w3.org/2000/svg" xmlns:xlink="http://www.w3.org/1999/xlink" width="1423" height="648" viewBox="0 0 1423 648"><defs><path id="hi9za" d="M182 1314.55c.02-47.76 38.96-10.95 87-10.98 48.06-.02 87.03-36.87 87 10.9-.02 47.76-38.99 86.5-87.04 86.52-48.05.02-86.98-38.68-86.96-86.44z"/><path id="hi9zb" d="M356 1308.43c-.02 47.75-38.96 10.95-87 10.97-48.06.02-87.03 36.86-87-10.9.02-47.74 38.99-86.47 87.04-86.49 48.05-.02 86.98 38.67 86.96 86.42z"/><path id="hi9zc" d="M162.58 924.08C116.45 936.42 72.46 909.41 60 863c-12.46-46.4 11.34-94.63 57.47-106.97 46.12-12.33 93.62 15.29 106.07 61.7 12.46 46.4-14.83 94.02-60.96 106.35z"/><path id="hi9zd" d="M1353 1143s8.53 100.07-9 99c-17.53-1.07-103.81-27.21-105-43-1.19-15.79-20.59-63.78 1-70 21.59-6.22 113 14 113 14zm-477-48s-89.46 25.16-108 12c-18.54-13.16-28.09-12.98-30-21-1.91-8.02 35.31-185.38 38-196 2.69-10.62 27-23 27-23z"/></defs><g><g transform="translate(-56 -753)"><use fill="#af7eeb" xlink:href="#hi9za"/></g><g transform="translate(-56 -753)"><g fill="#fff" font-family="'Panton-Black','Panton-Black'" font-size="71.7" font-style="none" font-weight="400" style="line-height:72px"><text dominant-baseline="text-before-edge" font-family="Helvetica, Arial, sans-serif" transform="translate(533 754)"><tspan letter-spacing="3.59" style="font-kerning:normal">Aa</tspan></text></g></g><g transform="translate(-56 -753)"><use fill="#51e3c2" xlink:href="#hi9zb"/></g><g transform="translate(-56 -753)"><use fill="#51e3c2" xlink:href="#hi9zc"/></g><g transform="translate(-56 -753)"><use fill="#51e3c2" xlink:href="#hi9zd"/></g></g></svg>