<svg xmlns="http://www.w3.org/2000/svg" viewBox="0 0 882.49 554.9">
    <defs>
        <style>
            .cls-1{fill:#ff687d}
        </style>
    </defs>
    <title>
        rРесурс 1
    </title>
    <g id="Слой_2" data-name="Слой 2">
        <g id="Layer_1" data-name="Layer 1">
            <path class="cls-1" d="M231 0c115.5 0 187.5 47.2 219 131.2 7.5 21.8 2.2 33-20.2 40.5l-80.2 28.5c-23.2 6.8-32.2 3-40.5-20.2-13.5-33.8-36-48.8-78-48.8-59.3 0-82.5 25.5-82.5 78v136.5c0 52.5 23.2 78 82.5 78 42 0 66-16.5 78-48.8 9-23.2 18-28.5 40.5-20.2l80.2 28.5c22.5 7.5 27.7 18.8 20.2 40.5-31.5 84-103.5 131.2-219 131.2-147.8 0-231-80.2-231-210V210C0 80.3 83.3 0 231 0z"/>
            <path class="cls-1" d="M708 142.5c93.8 0 148.5 45.8 168.8 104.2 7.5 22.5 1.5 33-20.2 40.5l-69.8 23.2c-22.5 7.5-32.2 2.2-41.2-20.2s-22.5-30.8-44.2-30.8c-26.2 0-39.8 15-39.8 40.5v97.5c0 25.5 14.2 40.5 39.8 40.5 21.8 0 35.2-8.2 44.2-30.8s18-26.2 41.2-18.8l72 21.8c21.8 6.8 29.2 18 19.5 41.2-27 65.2-82.5 103.5-178.5 103.5C576 554.8 522 491.8 522 389v-81.8c0-100.9 57.8-164.7 186-164.7z"/>
        </g>
    </g>
</svg>
