<svg xmlns="http://www.w3.org/2000/svg" xmlns:xlink="http://www.w3.org/1999/xlink" width="688" height="567" viewBox="0 0 688 567">
    <defs>
        <path id="a" d="M692.38 2650.92c-38.32 66.36-123.2 89.1-189.56 50.78a138.44 138.44 0 0 1-37.56-31.7c-3.87-3.24-37.6-30.5-67.45-24.66-37.77 7.38-62.9 67.19-62.9 67.19s-1.25 2.16-3.18 4.87c-1.21 2.47-2.48 4.93-3.88 7.35-32.72 56.67-105.2 76.09-161.88 43.37-56.68-32.72-76.1-105.18-43.38-161.85 3.67-6.34 7.85-12.19 12.43-17.58l-.06.01.58-.63c1.76-2.04 3.58-4.03 5.46-5.93l5.7-6.23c13.1-14.37 31.44-39.85 22.38-72.5-8.08-29.14-35.7-43.79-55.18-51.7a118.48 118.48 0 0 1-31.61-12.6c-56.68-32.72-76.1-105.19-43.38-161.85 32.73-56.67 105.2-76.09 161.88-43.37 56.68 32.72 76.1 105.18 43.38 161.85a118.03 118.03 0 0 1-32.5 36.26c-10.9 12.45-23.79 34.66-17 66.08 7.61 35.18 57.73 52.07 58.09 52.19a118.48 118.48 0 0 1 55.93 31.12v-.26s84.8 68.8 127-25.93l.48-1.05c2.9-14.39 8.1-28.56 15.85-41.97 38.32-66.36 123.2-89.1 189.56-50.79 66.38 38.32 89.12 123.17 50.8 189.53z"/>
    </defs>
    <use fill="#eb556a" xlink:href="#a" transform="translate(-23 -2218)"/>
</svg>
