<svg xmlns="http://www.w3.org/2000/svg" width="281" height="281" viewBox="0 0 281 281">
    <defs>
        <style>
            .cls-1{fill:#fff;fill-rule:evenodd}
        </style>
    </defs>
    <path id="Ellipse_11_copy_4" data-name="Ellipse 11 copy 4" class="cls-1" d="M766 15273c-3.866 0-7-14.1-7-18a7 7 0 0 1 14 0c0 3.9-3.134 18-7 18zm-7 231c-3.866 0-7 14.1-7 18a7 7 0 0 0 14 0c0-3.9-3.134-18-7-18zm87.646-194.7c-2.734-2.7 5.044-14.9 7.778-17.7a7 7 0 1 1 9.9 9.9c-2.734 2.8-14.945 10.5-17.678 7.8zm-168.292 158.4c-2.733-2.7-14.944 5-17.677 7.8a7 7 0 1 0 9.9 9.9c2.733-2.8 10.511-15 7.777-17.7zm199.657-75.7c0-3.9 14.134-7 18-7a7 7 0 1 1 0 14c-3.866 0-18-3.1-18-7zm-231-7c0-3.9-14.134-7-18-7a7 7 0 0 0 0 14c3.866 0 18-3.1 18-7zm194.69 87.7c2.733-2.8 14.944 5 17.677 7.7a7 7 0 0 1 0 9.9 6.883 6.883 0 0 1-9.9 0c-2.733-2.7-10.511-14.9-7.778-17.6zm-158.392-168.3c2.733-2.8-5.045-15-7.779-17.7a7 7 0 0 0-9.9 9.9c2.735 2.7 14.945 10.5 17.679 7.8z" transform="translate(-622 -15248)"/>
</svg>
