<svg xmlns="http://www.w3.org/2000/svg" xmlns:xlink="http://www.w3.org/1999/xlink" width="282" height="281" viewBox="0 0 282 281">
    <defs>
        <path id="a" d="M892.54 15466.66c-45.08-17.79-67.2-68.82-49.38-113.98 17.8-45.16 68.79-67.36 113.87-49.57 9.7 3.82 66.72 52.73 45.13 107.48-17.81 45.17-64.54 73.85-109.62 56.07z"/>
        <path id="b" d="M926 15273c-3.87 0-7-14.13-7-18a7 7 0 1 1 14 0c0 3.87-3.13 18-7 18zm0 249a7 7 0 0 1-14 0c0-3.87 3.13-18 7-18s7 14.13 7 18zm80.65-212.7c-2.74-2.73 5.04-14.94 7.77-17.67a7 7 0 1 1 9.9 9.9c-2.73 2.73-14.94 10.5-17.67 7.77zm-176.07 176.07a7 7 0 0 1-9.9-9.9c2.73-2.73 14.94-10.5 17.67-7.77 2.74 2.73-5.04 14.94-7.77 17.67zM1038 15392c0-3.86 14.14-7 18-7a7 7 0 0 1 0 14c-3.86 0-18-3.13-18-7zm-249 0a7 7 0 0 1 0-14c3.87 0 18 3.14 18 7 0 3.87-14.13 7-18 7zm212.7 80.66c2.72-2.74 14.93 5.04 17.67 7.77a7 7 0 1 1-9.9 9.9c-2.73-2.73-10.51-14.94-7.78-17.67zm-176.08-176.07a7 7 0 1 1 9.9-9.9c2.73 2.73 10.51 14.94 7.78 17.68-2.74 2.73-14.95-5.05-17.68-7.78z"/>
    </defs>
    <use fill="#fff" xlink:href="#a" transform="translate(-782 -15248)"/>
    <use fill="#fff" xlink:href="#b" transform="translate(-782 -15248)"/>
</svg>
