<svg xmlns="http://www.w3.org/2000/svg" width="562" height="562" viewBox="0 0 281 281">
    <defs>
        <style>
            .cls-1{fill:#fff;fill-rule:evenodd}
        </style>
    </defs>
    <path id="Ellipse_11_copy_4" data-name="Ellipse 11 copy 4" class="cls-1" d="M926 15273c-3.866 0-7-14.1-7-18a7 7 0 0 1 14 0c0 3.9-3.134 18-7 18zm-7 231c-3.866 0-7 14.1-7 18a7 7 0 0 0 14 0c0-3.9-3.134-18-7-18zm87.65-194.7c-2.74-2.7 5.04-14.9 7.77-17.7a7.062 7.062 0 0 1 9.9 0 6.989 6.989 0 0 1 0 9.9c-2.73 2.8-14.94 10.5-17.67 7.8zm-168.3 158.4c-2.733-2.7-14.944 5-17.677 7.8a7 7 0 1 0 9.9 9.9c2.737-2.8 10.515-15 7.781-17.7zm199.656-75.7c0-3.9 14.14-7 18-7a7 7 0 0 1 0 14c-3.856 0-17.996-3.1-17.996-7zm-231-7c0-3.9-14.134-7-18-7a7 7 0 0 0 0 14c3.871 0 18.005-3.1 18.005-7zm194.689 87.7c2.73-2.8 14.94 5 17.68 7.7a7.007 7.007 0 0 1 0 9.9 6.884 6.884 0 0 1-9.9 0c-2.725-2.7-10.508-14.9-7.775-17.6zm-158.391-168.3c2.733-2.8-5.045-15-7.779-17.7a7 7 0 0 0-9.9 9.9c2.74 2.7 14.95 10.5 17.684 7.8z" transform="translate(-782 -15248)"/>
</svg>
