<svg id="Layer_1" xmlns="http://www.w3.org/2000/svg" viewBox="0 0 1315.2 1095">
    <style>
        .st0{fill-rule:evenodd;clip-rule:evenodd}.st0,.st1{fill:#ff687d}
    </style>
    <path class="st0" d="M1218.2 228c32.6-74.1 91.4-127.8 34.2-185-57.2-57.3-150-57.3-207.3 0-57.2 57.3-65.1 140.8-7.9 198 57.3 57.2 154.5 47.2 181-13zm8 264c-49.2 0-89 39.8-89 89s39.8 89 89 89 89-39.8 89-89-39.8-89-89-89zM86 937.9c-26.7 15.4-41.1 26.1-43.3 63-1.3 21.9-3.9 33.3 5.4 49.4 24.7 42.8 79.5 57.4 122.3 32.7 42.8-24.7 57.5-79.4 32.8-122.1-24.7-42.8-74.4-47.7-117.2-23z"/>
    <path class="st1" d="M30 100.8h88.5c22.5 0 30 7.5 30 30v472.5c0 22.5-7.5 30-30 30H30c-22.5 0-30-7.5-30-30V130.8c0-22.5 7.5-30 30-30z"/>
    <path class="st1" d="M399.7 147.3v8.2c0 42-13.5 55.5-55.5 55.5h-37.5c-42.8 0-56.2-13.5-56.2-55.5v-8.2c0-42 13.5-55.5 56.2-55.5h37.5c42 0 55.5 13.5 55.5 55.5zm-4.5 124.5v333c0 21-7.5 28.5-29.2 28.5h-81.8c-21.8 0-29.2-7.5-29.2-28.5v-333c0-21 7.5-28.5 29.2-28.5H366c21.7 0 29.2 7.5 29.2 28.5z"/>
</svg>
