<svg id="Layer_1" xmlns="http://www.w3.org/2000/svg" viewBox="0 0 1476 636">
    <style>
        .st0{fill-rule:evenodd;clip-rule:evenodd;fill:#ae7dea}
    </style>
    <path class="st0" d="M1467.2 40.9c-22.6-50.1-71.2-48.4-121.7-25.6-50.5 22.8-83.9 58.2-61.2 108.3 22.6 50.1 81.9 72.3 132.5 49.4 50.4-22.8 73-82 50.4-132.1zM68.5 463.3C18 486.1-15.4 521.5 7.3 571.6c22.6 50.1 81.9 72.3 132.5 49.4 50.5-22.8 73.2-82 50.5-132.1-22.7-50.1-71.3-48.4-121.8-25.6zM1006 108c-145.8 0-358.2 199.7-234 276 119.6 73.5 88.2 252 234 252s264-118.2 264-264-118.2-264-264-264z"/>
</svg>
