<svg id="Layer_1" xmlns="http://www.w3.org/2000/svg" viewBox="0 0 1507.7 1740.1">
    <style>
        .st0,.st1{fill:#ffd669}.st1{fill-rule:evenodd;clip-rule:evenodd}
    </style>
    <path class="st0" d="M1033.3 410.8v99c0 105.8-82.5 186-230.2 186s-231-80.2-231-210v-135c0-129.8 83.3-210 231-210 115.5 0 187.5 47.2 219 131.3 7.5 21.8 2.2 33-20.2 40.5l-80.2 28.5c-23.2 7.5-32.2 3-40.5-20.2-13.5-33.8-36-48.8-78-48.8-59.2 0-82.5 25.5-82.5 78v136.5c0 52.5 23.2 78 82.5 78 50.2 0 81-18.8 81-51v-15h-72c-23.2 0-31.5-7.5-31.5-31.5v-56.2c0-24 8.2-32.2 31.5-32.2H1002c23.8-.1 31.3 8.1 31.3 32.1z"/>
    <path class="st0" d="M1295.8 283.3c66 0 120.8 12.8 147.8 25.5 25.5 11.2 29.2 18.8 29.2 43.5v331.5c0 99.8-50.2 173.2-180.8 173.2-84.8 0-135.8-24.8-167.2-74.2-12.8-20.2-6-33 14.2-43.5l63-30.8c21-10.5 30.8-5.2 40.5 7.5 11.2 14.2 22.5 27 48.8 27 28.5 0 41.2-15.8 41.2-43.5v-30c-15 2.2-32.2 4.5-51 4.5-115.5 0-168.8-59.2-168.8-161.2v-60c.1-109.5 60.1-169.5 183.1-169.5z"/>
    <path class="st1" d="M158.9 179.8c-34.6-51.7-95.5-57.8-73.6-116 21.9-58.2 66.5-62 98.4-63.7 76.7-4 134 85.2 112.1 143.4-21.8 58.2-108.9 78.1-136.9 36.3z"/>
    <path class="st1" d="M16.2 933C-13.3 853.3-5.6 825.4 65 784.5c70.7-40.8 92.2-25.3 160 17 70.3 43.9 31.1 167.7-39.5 208.6-70.6 40.8-146.3-15.2-169.3-77.1z"/>
    <path class="st1" d="M768.7 1005.6c47.5 0 86 38.5 86 86s-38.5 86-86 86-86-38.5-86-86 38.5-86 86-86z"/>
    <path class="st1" d="M1387.7 1478.1c71.7-7.2 120 59.4 120 131.5s-58.4 130.5-130.5 130.5-130.5-58.4-130.5-130.5 69-124.3 141-131.5z"/>
</svg>
