<svg id="Layer_1" xmlns="http://www.w3.org/2000/svg" viewBox="0 0 1938.2 2252">
    <style>
        .st0,.st1{fill:#af7eeb}.st1{fill-rule:evenodd;clip-rule:evenodd}
    </style>
    <path class="st0" d="M704.5 54v67.5c0 24-8.2 32.2-32.2 32.2h-198v87h158.2c24 0 32.2 8.2 32.2 31.5v67.5c0 24-8.2 32.2-32.2 32.2H474.3v151.5c0 23.2-7.5 31.5-31.5 31.5H358c-24 0-32.2-8.2-32.2-31.5V54c0-23.2 8.2-31.5 32.2-31.5h314.2c24.1 0 32.3 8.3 32.3 31.5z"/>
    <path class="st0" d="M1029.3 29.2V84c0 22.5-6.7 30-29.2 30-36.8 0-51 15.8-51 48v3h51.8c21.8 0 28.5 7.5 28.5 28.5v56.2c0 21.8-6.7 29.2-28.5 29.2H949v247.5c0 21-7.5 28.5-29.2 28.5h-81c-22.5 0-29.2-7.5-29.2-28.5V279h-24.8c-21.8 0-28.5-7.5-28.5-29.2v-56.2c0-21 6.8-28.5 28.5-28.5h24.8v-1.5C809.5 51 874.8.8 986.5 0h13.5c22.5 0 29.3 7.5 29.3 29.2z"/>
    <path class="st1" d="M1618.6 248.9c-114.6-7.1-192 171.5-342 109-114.1-47.6-219.3-52.5-323 28-103.4 80.3-254.9 64.4-395.9 27-137.3-36.5-237.1 99-237.1 99S261 585 153 642C98.1 671 35.4 743.4 0 788v1378.2c81.4 204.9 239.3-17 254.6-52.3 78.5-181.7 220.1-218.4 321-183 125 43.9 264 40.5 367-32 121.1-85.2 228.4-101.9 417-31 194.3 73 257.6-19.7 278-70 3.8-9.4 111.6-309.8 255.6-213.7 16.6 11.1 31.6 17.2 45 18.8V123.4c-26.5-60.7-168 134.9-319.6 125.5z"/>
</svg>
