<svg id="Layer_1" xmlns="http://www.w3.org/2000/svg" viewBox="0 0 1609 1685.8">
    <style>
        .st0{fill-rule:evenodd;clip-rule:evenodd}.st0,.st1{fill:#51e3c2}
    </style>
    <path class="st0" d="M1413.5.5c71.7-7.2 120 59.4 120 131.5s-58.4 130.5-130.5 130.5-130.5-58.4-130.5-130.5S1341.4 7.7 1413.5.5z"/>
    <path class="st1" d="M642.4 169.8v469.5c0 23.2-8.2 31.5-31.5 31.5h-85.5c-23.2 0-31.5-8.2-31.5-31.5V466.8H348.4v172.5c0 23.2-7.5 31.5-31.5 31.5h-84.8c-24 0-32.2-8.2-32.2-31.5V169.8c0-24 8.2-32.2 32.2-32.2h84.8c24 0 31.5 8.2 31.5 32.2v165.8h145.5V169.8c0-24 8.2-32.2 31.5-32.2h85.5c23.3 0 31.5 8.2 31.5 32.2z"/>
    <path class="st1" d="M888.4 144.3v128.2c6.8-.8 27.8-3 51-3 115.5 0 168.8 60 168.8 162v210.7c0 21-6.8 28.5-28.5 28.5h-82.5c-21 0-28.5-7.5-28.5-28.5V436.8c0-28.5-15-41.2-45-41.2-16.5 0-32.2 2.2-35.2 3v243.7c0 21-6.8 28.5-28.5 28.5h-82.5c-21.8 0-28.5-7.5-28.5-28.5v-498c0-21 6.8-28.5 28.5-28.5H860c21.6 0 28.4 7.5 28.4 28.5z"/>
    <path class="st0" d="M1197 1216.1c.1-113.1 92.2-151.2 206-151.2 113.8-.1 206.1 37.9 206 151s-92.3 204.9-206.1 205c-113.8 0-205.9-91.7-205.9-204.8z"/>
    <path class="st0" d="M3.1 1435.1c20-116.8 121.8-139.8 239.1-119.8 117.4 20 205.9 75.4 185.9 192.2-20 116.8-131.3 195.2-248.7 175.2-117.3-20-196.3-130.9-176.3-247.6z"/>
</svg>
