<svg id="Layer_1" xmlns="http://www.w3.org/2000/svg" viewBox="0 0 311 249">
    <style>
        .st0{fill-rule:evenodd;clip-rule:evenodd;fill:#fb5b71}
    </style>
    <path class="st0" d="M162 128.2c0-23.9-26.5-41.3-32-56.9-5.4-15.3 13.1-20 7-38.9-13.6-42.5 15.7-30.9-13-30.9C55.5 1.4 0 56.8 0 125.2S55.5 249 124 249c9.9 0 14.6-10 31-33.9 10.8-15.7-19.3-22.5-16-37.9 2.8-13.3 23-29.2 23-49zM187 1.4c-35.6 0 15.6 34.9-7 58.9-20.9 22.1 25 36.1 25 68.9 0 39.7-41.1 47.2-12 69.9 21 16.4-34.7 49.9-6 49.9 68.5 0 124-55.4 124-123.8S255.5 1.4 187 1.4z"/>
</svg>
