<svg id="Layer_1" xmlns="http://www.w3.org/2000/svg" viewBox="0 0 860.3 555">
    <style>
        .st0{fill:#51e3c2}
    </style>
    <path class="st0" d="M426 555h-81c-39.8 0-54-5.2-66.8-31.5L213 389.2c-12-24-22.5-37.5-51-37.5h-13.5v171.8c0 23.2-7.5 31.5-31.5 31.5H32.2C8.2 555 0 546.8 0 523.5V54c0-23.2 8.2-31.5 32.2-31.5H117c24 0 31.5 8.2 31.5 31.5v166.5H165L273 50.2c14.2-23.2 21-27.8 60-27.8h86.2c22.5 0 30 13.5 18 33L300.8 273c18.8 13.5 33 32.2 45.8 57.8l99 187.5C456 538.5 450.8 555 426 555z"/>
    <path class="st0" d="M830.2 555h-69c-34.5 0-45.8-4.5-54.8-28.5l-33.8-90c-6.8-15.8-17.2-22.5-34.5-22.5h-13.5v111.8c0 21.8-7.5 29.2-29.2 29.2h-81.8c-21.8 0-28.5-7.5-28.5-29.2V29.2C485.2 7.5 492 0 513.7 0h81.8c21.8 0 29.2 7.5 29.2 29.2V300h15.8l63-108c12-22.5 21.8-27 54-27h66.8c30 0 36.8 14.2 23.2 36.8l-84.8 145.5c9 7.5 17.2 18.8 24.8 33.8l66 135.8C867 543 861 555 830.2 555z"/>
</svg>
