<svg id="Layer_1" xmlns="http://www.w3.org/2000/svg" viewBox="0 0 1474.3 1299.6">
    <style>
        .st0,.st1{fill:#ff687d}.st1{fill-rule:evenodd;clip-rule:evenodd}
    </style>
    <path class="st0" d="M1414.2 148c0 71.9-68.1 112.4-140 112.4S1144 202.1 1144 130.2 1202.3 0 1274.2 0s140 76 140 148z"/>
    <path class="st0" d="M85.2 522.1c-75.6-20.7-98.7-103.9-78-179.6s98.7-120.2 174.4-99.6 120.2 98.7 99.6 174.4S161 542.8 85.2 522.1z"/>
    <path class="st0" d="M822.8 213c115.5 0 187.5 47.2 219 131.2 7.5 21.8 2.2 33-20.2 40.5l-80.2 28.5c-23.2 6.8-32.2 3-40.5-20.2-13.5-33.8-36-48.8-78-48.8-59.3 0-82.5 25.5-82.5 78v136.5c0 52.5 23.2 78 82.5 78 42 0 66-16.5 78-48.8 9-23.2 18-28.5 40.5-20.2l80.2 28.5c22.5 7.5 27.7 18.8 20.2 40.5-31.5 84-103.5 131.2-219 131.2-147.8 0-231-80.2-231-210V423c0-129.7 83.3-210 231-210z"/>
    <path class="st0" d="M1299.8 355.5c93.8 0 148.5 45.8 168.8 104.2 7.5 22.5 1.5 33-20.2 40.5l-69.8 23.2c-22.5 7.5-32.2 2.2-41.2-20.2s-22.5-30.8-44.2-30.8c-26.2 0-39.8 15-39.8 40.5v97.5c0 25.5 14.2 40.5 39.8 40.5 21.8 0 35.2-8.2 44.2-30.8s18-26.2 41.2-18.8l72 21.8c21.8 6.8 29.2 18 19.5 41.2-27 65.2-82.5 103.5-178.5 103.5-123.8 0-177.8-63-177.8-165.8v-81.8c0-100.9 57.8-164.7 186-164.7z"/>
    <path class="st1" d="M333.1 861.9c49.2 0 89 39.8 89 89s-39.8 89-89 89-89-39.8-89-89c0-49.1 39.8-89 89-89z"/>
    <g>
        <path class="st1" d="M1379.4 1247.4c-69.7 69.6-182.6 69.6-252.3 0-69.7-69.6-73.8-202.5 8.5-252.8 74.1-45.3 174.1-68.9 243.7.7 69.8 69.6 69.8 182.5.1 252.1z"/>
    </g>
</svg>
