<svg id="Layer_1" xmlns="http://www.w3.org/2000/svg" viewBox="0 0 1667.6 2088.8">
    <style>
        .st0{fill-rule:evenodd;clip-rule:evenodd}.st0,.st1{fill:#ffd669}
    </style>
    <path class="st0" d="M1410.3 295.9c-69.7 69.6-182.6 69.6-252.3 0-69.7-69.6-73.8-202.5 8.5-252.8 74.1-45.3 174.1-68.9 243.7.7 69.7 69.7 69.7 182.5.1 252.1z"/>
    <path class="st1" d="M445.5 408v112.5c0 129-82.5 210-230.2 210h-183C8.2 730.5 0 722.2 0 699V229.5C0 206.2 8.2 198 32.2 198h183c147.8 0 230.3 80.2 230.3 210z"/>
    <path class="st1" d="M698.2 329.2c18.8 0 36 1.5 50.2 2.2V204c0-21 7.5-28.5 29.2-28.5h81.8c21.8 0 29.2 7.5 29.2 28.5v468.8c0 24.8-6 32.2-31.5 42.8-32.2 12.8-78 26.2-154.5 26.2-119.2 0-174-60-174-162v-81c.1-110.3 58.6-169.6 169.6-169.6z"/>
    <path class="st0" d="M1374.3 817.9c-50-50.1-65.5-109.8-15.5-159.8 50-50.1 125.8-42.8 193.5-28.2 71.1 15.3 37.8 158.3-12.6 209.4-49.6 50.4-115.4 28.7-165.4-21.4z"/>
    <path class="st0" d="M1566.9 1274.4c68.8 16.3 113.5 58.9 97.3 127.7-16.1 68.9-84.4 102.6-149.7 125.8-68.5 24.4-115.5-114.7-99.6-184.7 15.8-68.9 83.2-85.1 152-68.8z"/>
    <path class="st0" d="M93.3 1218.6c-50-50.1-65.5-109.8-15.5-159.8 50-50.1 112.9-18.6 179.1 1.7 68.6 21 51.8 129.5 1.8 179.6-49.9 50-115.4 28.6-165.4-21.5z"/>
    <path class="st0" d="M1375.9 1976.1c0 62.3-50.4 112.7-112.7 112.7-62.3 0-99.2-53.1-108.4-109.2-10.2-62.5 46-116.3 108.3-116.3 62.3.1 112.8 50.6 112.8 112.8z"/>
</svg>
