<svg id="Layer_1" xmlns="http://www.w3.org/2000/svg" viewBox="0 0 1280 640">
    <style>
        .st0{fill:#51e3c2}
    </style>
    <path class="st0" d="M838.8 610h-83.2c-40 0-51.6-8.5-57.7-32.3l-17.7-55.4H513.9l-17.7 55.4c-7.7 23.9-17.7 32.3-56.2 32.3h-80.8c-23.9 0-28.5-10.8-20.8-31.6L515.5 90.3c7.7-22.3 17.7-26.9 40-26.9h87.8c22.3 0 32.3 5.4 40 25.4l177.8 489.7c7.8 20.7.8 31.5-22.3 31.5z"/>
    <path class="st0" d="M1100.6 198c136.3 0 179.4 67.8 179.4 166.3v189.4c0 28.5-6.2 37-29.3 46.2-30.8 13.1-82.4 21.6-152.4 21.6-144.7 0-183.2-41.6-183.2-127.8 0-100.1 55.4-128.6 187.1-128.6 13.1 0 26.2.8 34.6.8v-19.2c0-25.4-11.5-39.3-43.1-39.3-25.4 0-39.3 11.5-50 26.2-10 13.9-17.7 20-42.3 10L946 320.5c-20.8-9.2-27.7-20-16.2-42.3 27.6-53.2 84.6-80.2 170.8-80.2z"/>
    <circle class="st0" cx="160.1" cy="549.9" r="90.1"/>
    <circle class="st0" cx="80.1" cy="270.8" r="80.1"/>
</svg>
