<svg id="Layer_1" xmlns="http://www.w3.org/2000/svg" viewBox="0 0 1410.9 890.1">
    <style>
        .st0{fill-rule:evenodd;clip-rule:evenodd}.st0,.st1{fill:#51e3c2}
    </style>
    <path class="st0" d="M1405.9 112.8c0 62.3-50.4 112.7-112.7 112.7-62.3 0-99.2-53.1-108.4-109.2C1174.7 53.8 1230.9 0 1293.1 0c62.3 0 112.8 50.5 112.8 112.8z"/>
    <path class="st1" d="M957.1 322.1v67.5c0 24-8.2 32.2-32.2 32.2h-198v66.8h158.2c24 0 32.2 8.2 32.2 31.5v67.5c0 24-8.2 32.2-32.2 32.2H726.9v72h204.8c23.2 0 31.5 7.5 31.5 31.5v68.2c0 23.2-8.2 31.5-31.5 31.5h-321c-24 0-32.2-8.2-32.2-31.5V322.1c0-23.2 8.2-31.5 32.2-31.5h314.2c24 0 32.2 8.3 32.2 31.5z"/>
    <path class="st1" d="M1222.6 421.9c129.8 0 188.2 74.2 188.2 164.2v41.2c0 24-10.5 39-41.2 39h-195v14.2c0 35.2 19.5 48.8 48.8 48.8 32.2 0 48.8-13.5 60-27.8 9.8-14.2 18-18.8 42-7.5l51.8 22.5c20.2 9.8 25.5 22.5 14.2 43.5-28.5 49.5-83.2 74.2-169.5 74.2-134.2 0-186.8-75-186.8-173.2v-66c0-112.4 66-173.1 187.5-173.1z"/>
    <path class="st0" d="M89 368.9c-51-43.5-72.3-73.2-50.5-131.4 21.9-58.2 71.8-87.1 104.4-84.7 62.9 4.6 128 106.2 106.1 164.4-21.8 58.2-121.7 84.4-160 51.7z"/>
    <path class="st0" d="M.2 808.1C8.1 727-12.5 658.6 58.1 617.8c70.7-40.8 151.8 17.9 192.8 77.8 46.8 68.4 25.4 137.3-45.2 178.1C135 914.5-6.2 873.9.2 808.1z"/>
</svg>
