<svg id="Layer_1" xmlns="http://www.w3.org/2000/svg" viewBox="0 0 1391 886.9">
    <style>
        .st0{fill:#af7eeb}
    </style>
    <path class="st0" d="M1287.6 774.5c0 71.9-68.1 112.4-140 112.4s-130.2-58.3-130.2-130.2 58.3-130.2 130.2-130.2 140 76 140 148z"/>
    <path class="st0" d="M1391 135.4c0 74.8-81.2 135.4-156 135.4s-127-60.6-127-135.4S1168.6 0 1243.4 0 1391 60.6 1391 135.4z"/>
    <path class="st0" d="M428.6 181.1c0 51.6-16.2 86.2-55.4 113.1v3.1c49.2 21.5 77.7 65.4 77.7 132.3 0 99.3-80.8 152.4-189.3 152.4H33.1C8.5 582 0 573.5 0 549.6V67.9c0-24.6 8.5-33 33.1-33h225.5c106.1 0 170 52.3 170 146.2z"/>
    <path class="st0" d="M642.5 42.6v132.3c16.2-2.3 33.1-4.6 52.3-4.6 118.5 0 173.1 60.8 173.1 165.4v83.1c0 113.1-61.6 174.7-187.8 174.7-67.7 0-123.1-13.9-151.6-26.2-26.2-12.3-30-19.2-30-45.4V42.6c0-22.3 7.7-29.2 30-29.2h83.9c22.4-.1 30.1 6.8 30.1 29.2z"/>
</svg>
