<svg id="Layer_1" xmlns="http://www.w3.org/2000/svg" viewBox="0 0 1938.2 2252">
    <style>
        .st0{fill:#ffd669}.st1,.st2{fill-rule:evenodd;clip-rule:evenodd;fill:#fff}.st2{fill:#ffd669}
    </style>
    <path class="st0" d="M0 123.4v1740.4c13.4-1.6 28.4-7.7 45-18.8 144-96.1 251.8 204.3 255.6 213.7 20.4 50.3 83.7 143 278 70 188.6-70.9 295.9-54.2 417 31 103 72.5 242 75.9 367 32 100.9-35.4 242.5 1.3 321 183 15.3 35.3 173.2 257.2 254.6 52.3V788c-35.4-44.6-98.1-117-153-146-108-57-167.6-130.1-167.6-130.1s-99.8-135.5-237.1-99c-141 37.4-292.5 53.3-395.9-27-103.7-80.5-208.9-75.6-323-28-150 62.5-272-147-386.6-139.9C123.4 227.4 26.5 62.7 0 123.4z"/>
    <path class="st0" d="M1282.8-49.8v316.5c0 123-70.5 196.5-206.2 196.5-103.5 0-165.8-46.5-195-126.8-8.2-21.8-2.2-32.2 19.5-40.5l78-27.8c22.5-8.2 33-4.5 42 18 12.8 30 28.5 45.8 58.5 45.8 36.8 0 54.8-21 54.8-64.5V-49.8c0-23.2 7.5-31.5 31.5-31.5h86.2c23.1.1 30.7 8.3 30.7 31.5z"/>
    <path class="st0" d="M1488.2 90.5v369c0 114.8-64.5 165-190.5 165-22.5 0-30-7.5-30-29.2v-63.8c0-22.5 7.5-30 30-30 36.8 0 51-18.8 51-51v-360c0-21 6.8-28.5 29.2-28.5h81c22.6 0 29.3 7.5 29.3 28.5zm4.5-124.5v8.2c0 42-12.8 55.5-55.5 55.5h-37.5c-42.8 0-55.5-13.5-55.5-55.5V-34c0-42 12.8-55.5 55.5-55.5h37.5c42.8 0 55.5 13.5 55.5 55.5z"/>
    <path class="st1" d="M533.1 1637.1c-49.4 0-83 44.7-83 94.1 0 59.9 60.4 74.8 83.4 74.8 49.4 0 89-30 89-79.5 0-49.4-40-89.4-89.4-89.4zM488.5 1301c-51.9 29.9-37.4 105.1-32.1 114.3 24.7 42.8 79.5 57.4 122.3 32.7 42.8-24.7 57.5-79.4 32.8-122.1-24.7-42.8-80.2-49.6-123-24.9zm582 400c0 3.9 3.1 18 7 18s7-14.1 7-18c0-3.9-3.1-7-7-7s-7 3.1-7 7zm0 249c-3.9 0-7 14.1-7 18s3.1 7 7 7 7-3.1 7-7-3.1-18-7-18zm95.4-212.4c-2.7 2.7-10.5 14.9-7.8 17.7 2.7 2.7 14.9-5 17.7-7.8 2.7-2.7 2.7-7.2 0-9.9s-7.1-2.7-9.9 0zm-193.7 183.9c-2.7 2.7-2.7 7.2 0 9.9s7.2 2.7 9.9 0 10.5-14.9 7.8-17.7c-2.8-2.7-15 5-17.7 7.8zm235.3-90.5c-3.9 0-18 3.1-18 7s14.1 7 18 7 7-3.1 7-7-3.1-7-7-7zm-267-7c-3.9 0-7 3.1-7 7s3.1 7 7 7 18-3.1 18-7-14.1-7-18-7zm212.7 94.7c-2.7 2.7 5 14.9 7.8 17.7 2.7 2.7 7.2 2.7 9.9 0s2.7-7.2 0-9.9-15-10.6-17.7-7.8zm-158.4-168.3c2.7-2.7-5-14.9-7.8-17.7-2.7-2.7-7.2-2.7-9.9 0s-2.7 7.2 0 9.9c2.8 2.7 15 10.5 17.7 7.8zm113.7-1.3c-45.1-17.8-96.1 4.4-113.9 49.6-17.8 45.2 4.3 96.2 49.4 114 45.1 17.8 91.8-10.9 109.6-56.1 21.6-54.8-35.4-103.7-45.1-107.5zm45.2-294.5c21.6-54.8-35.4-103.7-45.1-107.5-45.1-17.8-96.1 4.4-113.9 49.6-17.8 45.2 4.3 96.2 49.4 114 45 17.7 91.7-10.9 109.6-56.1zM488.5 903c-51.9 29.9-37.4 105.1-32.1 114.3 24.7 42.8 79.5 57.4 122.3 32.7 42.8-24.7 57.5-79.4 32.8-122.1-24.7-42.8-80.2-49.6-123-24.9zm650.7 219c34.9-34.9 27.1-90.3-7.8-125.2-42.4-42.4-111.2-8.9-118.7-1.4-34.9 34.9-34.9 91.6 0 126.6s91.5 35 126.5 0zm-23.5-356c42.8-24.7 57.5-79.4 32.8-122.1-24.7-42.8-80.2-49.5-123-24.9-51.9 29.9-37.4 105.1-32.1 114.3 24.8 42.7 79.5 57.4 122.3 32.7zM495.3 454.9c-26.7 15.4-54.3 27.7-43.3 63 5.1 16.5-3.9 33.3 5.4 49.4 24.7 42.8 79.5 57.4 122.3 32.7 42.8-24.7 57.5-79.4 32.8-122.1-24.7-42.8-74.4-47.7-117.2-23z"/>
    <path class="st2" d="M595.5-104.1c24.7 42.8 10 97.5-32.8 122.1-42.8 24.7-97.6 10-122.3-32.7-9.3-16.1-6.7-27.4-5.4-49.4 2.2-37 16.5-47.6 43.3-63 42.8-24.7 92.5-19.8 117.2 23z"/>
</svg>
