<svg id="Layer_1" xmlns="http://www.w3.org/2000/svg" width="29" height="41" viewBox="0 0 29 41">
    <style>
        .st0{opacity:.6}.st1{fill:#344c57}
    </style>
    <g class="st0">
        <path class="st1" d="M23.3 41H5.7C2.5 41 0 38.5 0 35.4V5.6C0 2.5 2.5 0 5.7 0h17.6C26.5 0 29 2.5 29 5.6v29.7c0 3.1-2.6 5.7-5.7 5.7zM5.7 1C3.1 1 1 3 1 5.6v29.7C1 38 3.1 40 5.7 40h17.6c2.5 0 4.7-2.1 4.7-4.6V5.6C28 3 25.9 1 23.3 1H5.7z"/>
    </g>
    <g class="st0">
        <path class="st1" d="M14.8 38.4c-2 0-3.6-1.6-3.6-3.6s1.6-3.6 3.6-3.6 3.6 1.6 3.6 3.6-1.6 3.6-3.6 3.6zm0-6.1c-1.4 0-2.6 1.2-2.6 2.6s1.2 2.6 2.6 2.6c1.4 0 2.6-1.2 2.6-2.6s-1.1-2.6-2.6-2.6z"/>
    </g>
</svg>
