<svg id="Layer_1" xmlns="http://www.w3.org/2000/svg" xmlns:xlink="http://www.w3.org/1999/xlink" viewBox="0 0 9 15.9">
    <style>
        .st0{clip-path:url(#SVGID_2_)}
    </style>
    <defs>
        <path id="SVGID_1_" d="M0 0h9v15.9H0z"/>
    </defs>
    <clipPath id="SVGID_2_">
        <use xlink:href="#SVGID_1_" overflow="visible"/>
    </clipPath>
    <path class="st0" d="M8.7 0H6.5c-2.4 0-4 1.5-4 3.9v1.8H.3c-.1.1-.3.2-.3.4v2.6c0 .2.2.3.3.3h2.2v6.6c0 .2.2.3.3.3h2.8c.3.1.4 0 .4-.2V9h2.5c.2 0 .3-.1.3-.3V6.1c0-.1 0-.2-.1-.2s-.1-.1-.1-.1H6V4.2c0-.7.2-1.1 1.2-1.1h1.5c.1 0 .3-.1.3-.3V.3c0-.2-.2-.3-.3-.3"/>
</svg>
