<svg id="Layer_1" xmlns="http://www.w3.org/2000/svg" viewBox="0 0 60.6 40">
    <style>
        .st0{fill:none;stroke:#000;stroke-miterlimit:10}
    </style>
    <circle class="st0" cx="20" cy="20" r="19.5"/>
    <circle class="st0" cx="20" cy="20" r="14.3"/>
    <path d="M56.1 25c1.9 0 3.5 1.5 3.5 3.4 0 2.2-1.9 6.6-3.5 6.6s-3.5-4.3-3.5-6.6c0-1.9 1.6-3.4 3.5-3.4m0-1c-2.5 0-4.5 2-4.5 4.4s2 7.6 4.5 7.6 4.5-5.1 4.5-7.6-2-4.4-4.5-4.4z"/>
    <path class="st0" d="M42.6 3v4.6c0 2.4 2 4.4 4.5 4.4s4.5-2 4.5-4.4V3"/>
    <path class="st0" d="M56.1 25V3"/>
    <path class="st0" d="M47.1 37V3"/>
</svg>
