<svg xmlns="http://www.w3.org/2000/svg" viewBox="0 0 399.7 541.5">
    <defs>
        <style>
            .cls-1{fill:#ff687d}
        </style>
    </defs>
    <title>
        Ресурс 1
    </title>
    <g id="Слой_2" data-name="Слой 2">
        <g id="Layer_1" data-name="Layer 1">
            <path class="cls-1" d="M30 9h88.5c22.5 0 30 7.5 30 30v472.5c0 22.5-7.5 30-30 30H30c-22.5 0-30-7.5-30-30V39C0 16.5 7.5 9 30 9z"/>
            <path class="cls-1" d="M399.7 55.5v8.2c0 42-13.5 55.5-55.5 55.5h-37.5c-42.8 0-56.2-13.5-56.2-55.5v-8.2c0-42 13.5-55.5 56.2-55.5h37.5c42 0 55.5 13.5 55.5 55.5zM395.2 180v333c0 21-7.5 28.5-29.2 28.5h-81.8c-21.8 0-29.2-7.5-29.2-28.5V180c0-21 7.5-28.5 29.2-28.5H366c21.7 0 29.2 7.5 29.2 28.5z"/>
        </g>
    </g>
</svg>
