<svg xmlns="http://www.w3.org/2000/svg" viewBox="0 0 24.1 14">
    <path d="M.5 2.9c.9 2 2.4 4.3 4.3 7.1.7.8 1.2 1.3 1.6 1.7.4.4.9.8 1.5 1.2.6.5 1.3.7 2.1.9s1.5.2 2.5.2h.7c.2 0 .4-.1.6-.3.2-.2.3-.4.4-.8l.2-1.5c.2-.5.4-.6.8-.6.4.1.7.2.9.5.3.5.8 1.1 1.5 1.8.8.7 1.5 1 2 1h3.9c.4 0 .5-.3.7-.6.1-.3 0-.7-.2-1.2-.6-.9-1.6-1.9-3.1-3.3-.7-.7-.5-1.5.4-2.6.7-.8 1.5-1.8 2.2-2.9.8-1.2 1-1.9.7-2.3-.2-.2-.3-.2-.4-.2h-4.4c-.4 0-.6 0-.7.1s-.2.2-.4.6c0 0-1.3 3.6-2.9 5-.4-.1-.4.1-.8.1-.5 0-.6-1.3-.6-1.8V3.7c.1-.5.1-.9.2-1.3.1-.5.1-.7.1-.9 0-.9-.6-1.4-1.8-1.4 0 0-.3 0-.9-.1s-.9 0-1.3 0C8.9 0 8 .3 7.8.9c1 .3 1.5 1.1 1.5 2.3 0 1.9-.1 2.9-.2 2.9-.2.8-.6.9-1.2.3C7 5.2 6 3.5 5 1.3 4.8.9 4.5.6 4.1.7H.7C.4.7.2.8 0 .9c0 .6.2 1.3.5 2z"/>
</svg>
