<svg xmlns="http://www.w3.org/2000/svg" viewBox="0 0 450.66 532.6">
    <defs>
        <style>
            .cls-1{fill:#51e3c2}
        </style>
    </defs>
    <title>
        Ресурс 1
    </title>
    <g id="Слой_2" data-name="Слой 2">
        <path class="cls-1" d="M426 532.6h-81c-39.8 0-54-5.2-66.8-31.5L213 366.8c-12-24-22.5-37.5-51-37.5h-13.5v171.8c0 23.2-7.5 31.5-31.5 31.5H32.2c-24 0-32.2-8.2-32.2-31.5V31.6C0 8.4 8.2.1 32.2.1H117c24 0 31.5 8.2 31.5 31.5v166.5H165L273 27.8C287.2 4.6 294 0 333 0h86.2c22.5 0 30 13.5 18 33L300.8 250.6c18.8 13.5 33 32.2 45.8 57.8l99 187.5c10.4 20.2 5.2 36.7-19.6 36.7z" id="Layer_1" data-name="Layer 1"/>
    </g>
</svg>
