<svg id="Layer_1" xmlns="http://www.w3.org/2000/svg" viewBox="0 0 97.6 40">
    <style>
        .st0{fill:#51e3c2}.st1{fill:#344c57}
    </style>
    <circle class="st0" cx="20" cy="20" r="20"/>
    <path class="st1" d="M14.7 15.5v.5c0 .3-.1.4-.4.4H9.8v2.9h3.9c.3 0 .4.1.4.4v.5c0 .3-.1.4-.4.4H9.8v3.1h4.7c.3 0 .4.1.4.4v.5c0 .3-.1.4-.4.4H8.8c-.3 0-.4-.1-.4-.4v-8.9c0-.3.1-.4.4-.4h5.5c.3-.1.4 0 .4.2z"/>
    <path class="st1" d="M19.9 15c1.9 0 2.9.7 3.6 2.1.1.2.1.4-.2.5l-.6.3c-.2.1-.3.1-.5-.2-.5-.9-1.1-1.4-2.3-1.4-1.5 0-2.3.5-2.3 1.5 0 1.2 1.3 1.4 2.6 1.6 1.6.2 3.4.5 3.4 2.7 0 1.8-1.3 3-3.8 3-2 0-3.1-.8-3.7-2.3-.1-.3 0-.4.2-.5l.7-.3c.2-.1.4 0 .5.2.4 1 1.2 1.5 2.5 1.5 1.6 0 2.4-.5 2.4-1.7s-1.1-1.4-2.4-1.5c-1.7-.2-3.6-.4-3.6-2.7-.1-1.6 1.2-2.8 3.5-2.8z"/>
    <path class="st1" d="M26.9 15.5v8.1h4.3c.3 0 .4.1.4.4v.5c0 .3-.1.4-.4.4H26c-.3 0-.4-.1-.4-.4v-8.9c0-.3.1-.4.4-.4h.6c.2 0 .3.1.3.3z"/>
    <g>
        <path class="st1" d="M51.8 25c-2.7 0-4.4-2-4.4-5.1 0-3.1 1.7-5 4.4-5 2.1 0 3.7 1.2 4 3.1h-1c-.4-1.4-1.6-2.3-3.1-2.3-2.1 0-3.5 1.6-3.5 4.2s1.4 4.3 3.5 4.3c1.9 0 3.2-1.2 3.2-3.1v-.3h-3.1V20h4v1c.1 2.4-1.4 4-4 4z"/>
        <path class="st1" d="M60.2 14.5h.9v10.3h-.9V14.5z"/>
        <path class="st1" d="M65.2 21.1c0-2.3 1.3-3.8 3.3-3.8s3.3 1.5 3.3 3.8-1.3 3.8-3.3 3.8-3.3-1.5-3.3-3.8zm5.8 0c0-1.8-.9-3-2.4-3s-2.4 1.1-2.4 3c0 1.8.9 3 2.4 3s2.4-1.1 2.4-3z"/>
        <path class="st1" d="M76.9 23.3v1.6H76V14.5h.9V19c.4-1 1.4-1.6 2.5-1.6 1.8 0 3.1 1.5 3.1 3.8S81.2 25 79.4 25c-1.1-.1-2-.7-2.5-1.7zm0-2.2c0 1.7 1 2.9 2.4 2.9s2.4-1.2 2.4-3-.9-3-2.4-3c-1.4.2-2.4 1.4-2.4 3.1z"/>
        <path class="st1" d="M86.3 22.8c0-1.3.9-2 2.7-2.1l2.3-.2v-.6c0-1.1-.7-1.7-1.9-1.7-1 0-1.7.5-1.9 1.4h-.9c.1-1.3 1.2-2.2 2.8-2.2 1.7 0 2.8.9 2.8 2.4v5h-.9v-1.4c-.4.9-1.4 1.5-2.5 1.5-1.5 0-2.5-.9-2.5-2.1zm5-.7v-.8l-2.2.2c-1.2.1-1.9.6-1.9 1.4 0 .8.7 1.3 1.7 1.3 1.4-.1 2.4-1 2.4-2.1z"/>
        <path class="st1" d="M96.7 14.5h.9v10.3h-.9V14.5z"/>
    </g>
</svg>
