<svg id="svg2" xmlns="http://www.w3.org/2000/svg" viewBox="0 0 40 44">
    <style>
        .st0{fill:url(#path64_1_)}.st1{fill:url(#path78_1_)}.st2{fill:url(#path88_1_)}.st3{fill:url(#path104_1_)}
    </style>
    <g id="g10" transform="matrix(1.25 0 0 -1.25 -9.425 49.85)">
        <g id="g12" transform="matrix(1.0024 0 0 .99073 -.297 0)">
            <g id="g48">
                <linearGradient id="path64_1_" gradientUnits="userSpaceOnUse" x1="31.661" y1="157.053" x2="2.66" y2="128.053" gradientTransform="matrix(1.0024 0 0 -.9907 -7.568 162.465)">
                    <stop offset="0" stop-color="#00a0ff"/>
                    <stop offset=".007" stop-color="#00a1ff"/>
                    <stop offset=".26" stop-color="#00beff"/>
                    <stop offset=".512" stop-color="#00d2ff"/>
                    <stop offset=".76" stop-color="#00dfff"/>
                    <stop offset="1" stop-color="#00e3ff"/>
                </linearGradient>
                <path id="path64" class="st0" d="M8.5 39.7c-.4-.4-.6-1.1-.6-1.9V7.2c0-.9.2-1.5.6-1.9l.1-.1 17.1 17.1v.4L8.6 39.8l-.1-.1z"/>
            </g>
            <g id="g66">
                <linearGradient id="path78_1_" gradientUnits="userSpaceOnUse" x1="48.26" y1="141.298" x2="6.446" y2="141.298" gradientTransform="matrix(1.0024 0 0 -.9907 -7.568 162.465)">
                    <stop offset="0" stop-color="#ffe000"/>
                    <stop offset=".409" stop-color="#ffbd00"/>
                    <stop offset=".775" stop-color="orange"/>
                    <stop offset="1" stop-color="#ff9c00"/>
                </linearGradient>
                <path id="path78" class="st1" d="M31.4 16.6l-5.7 5.7v.4l5.7 5.7.1-.1 6.8-3.8c1.9-1.1 1.9-2.9 0-4l-6.8-3.8c0-.1-.1-.1-.1-.1z"/>
            </g>
            <g id="g80">
                <linearGradient id="path88_1_" gradientUnits="userSpaceOnUse" x1="24.329" y1="149.738" x2="-14.999" y2="110.41" gradientTransform="matrix(1.0024 0 0 -.9907 -7.568 162.465)">
                    <stop offset="0" stop-color="#ff3a44"/>
                    <stop offset="1" stop-color="#c31162"/>
                </linearGradient>
                <path id="path88" class="st2" d="M31.5 16.6l-5.8 5.8L8.5 5.2c.6-.7 1.7-.8 2.9-.1l20.1 11.5"/>
            </g>
            <g id="g90">
                <linearGradient id="path104_1_" gradientUnits="userSpaceOnUse" x1=".156" y1="157.319" x2="17.717" y2="139.757" gradientTransform="matrix(1.0024 0 0 -.9907 -7.568 162.465)">
                    <stop offset="0" stop-color="#32a071"/>
                    <stop offset=".069" stop-color="#2da771"/>
                    <stop offset=".476" stop-color="#15cf74"/>
                    <stop offset=".801" stop-color="#06e775"/>
                    <stop offset="1" stop-color="#00f076"/>
                </linearGradient>
                <path id="path104" class="st3" d="M31.5 28.3L11.3 39.8c-1.2.7-2.2.6-2.9-.1l17.2-17.2 5.9 5.8z"/>
            </g>
        </g>
    </g>
</svg>
