<svg xmlns="http://www.w3.org/2000/svg" width="1600" height="2066.6" viewBox="0 0 1600 2066.6">
    <defs>
        <style>
            .cls-1{fill:#ffd669;fill-rule:evenodd}
        </style>
    </defs>
    <path class="cls-1" d="M1600 357.6s-185.62-162.7-437-99c-141.42 35.9-251.527-13.7-355-94-103.735-80.5-192.036-103.1-306.178-55.5C351.783 171.6 274.551-4.1 159.733.1 90.628 2.6 12.476 42-2 112.6c-81.946 399.7-9 1694-9 1694s235.491 166.2 429.8 93.2c188.614-70.8 274.265-61.7 402.1 13 101.575 59.4 210.054 96.9 335.094 53 100.96-35.4 247.48-54.6 313 59.8 34.95 61 172.6 53.6 191-20 68.73-274.8-34-1256-34-1256z"/>
</svg>
