<?xml version="1.0" encoding="UTF-8"?><!DOCTYPE svg PUBLIC "-//W3C//DTD SVG 1.1//EN" "http://www.w3.org/Graphics/SVG/1.1/DTD/svg11.dtd"><svg xmlns="http://www.w3.org/2000/svg" xmlns:xlink="http://www.w3.org/1999/xlink"><defs>
        <path id="SVGID_1_" d="M0 0h9v15.9H0z"/>
    </defs><symbol id="icon-Apple_logo_black" viewBox="0 0 40 47.5">
    <path d="M39.2 37c-.7 1.7-1.6 3.2-2.6 4.6-1.3 1.9-2.4 3.2-3.3 4-1.3 1.2-2.7 1.8-4.2 1.9-1.1 0-2.4-.3-3.9-.9-1.5-.6-2.9-.9-4.2-.9-1.3 0-2.8.3-4.3.9-1.5.6-2.8.9-3.7 1-1.4.1-2.9-.6-4.3-1.9-.9-.8-2.1-2.2-3.4-4.1-1.5-2.1-2.7-4.5-3.6-7.2-1-3-1.5-5.8-1.5-8.6 0-3.2.7-5.9 2.1-8.2 1.1-1.8 2.5-3.3 4.3-4.4s3.7-1.6 5.8-1.7c1.1 0 2.7.4 4.5 1.1 1.9.7 3.1 1.1 3.6 1.1.4 0 1.7-.4 4-1.2 2.1-.8 3.9-1.1 5.4-1 4 .3 7 1.9 9 4.7-3.6 2.2-5.3 5.2-5.3 9.1 0 3 1.1 5.6 3.3 7.6 1 .9 2.1 1.6 3.3 2.2-.5.5-.7 1.2-1 1.9zM30 1c0 2.4-.9 4.6-2.6 6.6-2.1 2.4-4.6 3.8-7.3 3.6 0-.3-.1-.6-.1-.9 0-2.3 1-4.7 2.8-6.7.9-1 2-1.9 3.4-2.5C27.6.4 28.8.1 30 0v1z"/>
</symbol><symbol id="icon-ESL_2parts" viewBox="0 0 311 249">
    <style>
        .st0{fill-rule:evenodd;clip-rule:evenodd;fill:#fb5b71}
    </style>
    <path class="st0" d="M162 128.2c0-23.9-26.5-41.3-32-56.9-5.4-15.3 13.1-20 7-38.9-13.6-42.5 15.7-30.9-13-30.9C55.5 1.4 0 56.8 0 125.2S55.5 249 124 249c9.9 0 14.6-10 31-33.9 10.8-15.7-19.3-22.5-16-37.9 2.8-13.3 23-29.2 23-49zM187 1.4c-35.6 0 15.6 34.9-7 58.9-20.9 22.1 25 36.1 25 68.9 0 39.7-41.1 47.2-12 69.9 21 16.4-34.7 49.9-6 49.9 68.5 0 124-55.4 124-123.8S255.5 1.4 187 1.4z"/>
</symbol><symbol id="icon-ESL_Aa" viewBox="0 0 1280 640">
    <style>
        .st0{fill:#51e3c2}
    </style>
    <path class="st0" d="M838.8 610h-83.2c-40 0-51.6-8.5-57.7-32.3l-17.7-55.4H513.9l-17.7 55.4c-7.7 23.9-17.7 32.3-56.2 32.3h-80.8c-23.9 0-28.5-10.8-20.8-31.6L515.5 90.3c7.7-22.3 17.7-26.9 40-26.9h87.8c22.3 0 32.3 5.4 40 25.4l177.8 489.7c7.8 20.7.8 31.5-22.3 31.5z"/>
    <path class="st0" d="M1100.6 198c136.3 0 179.4 67.8 179.4 166.3v189.4c0 28.5-6.2 37-29.3 46.2-30.8 13.1-82.4 21.6-152.4 21.6-144.7 0-183.2-41.6-183.2-127.8 0-100.1 55.4-128.6 187.1-128.6 13.1 0 26.2.8 34.6.8v-19.2c0-25.4-11.5-39.3-43.1-39.3-25.4 0-39.3 11.5-50 26.2-10 13.9-17.7 20-42.3 10L946 320.5c-20.8-9.2-27.7-20-16.2-42.3 27.6-53.2 84.6-80.2 170.8-80.2z"/>
    <circle class="st0" cx="160.1" cy="549.9" r="90.1"/>
    <circle class="st0" cx="80.1" cy="270.8" r="80.1"/>
</symbol><symbol id="icon-ESL_App" viewBox="0 0 1476 636">
    <style>
        .st0{fill-rule:evenodd;clip-rule:evenodd;fill:#ae7dea}
    </style>
    <path class="st0" d="M1467.2 40.9c-22.6-50.1-71.2-48.4-121.7-25.6-50.5 22.8-83.9 58.2-61.2 108.3 22.6 50.1 81.9 72.3 132.5 49.4 50.4-22.8 73-82 50.4-132.1zM68.5 463.3C18 486.1-15.4 521.5 7.3 571.6c22.6 50.1 81.9 72.3 132.5 49.4 50.5-22.8 73.2-82 50.5-132.1-22.7-50.1-71.3-48.4-121.8-25.6zM1006 108c-145.8 0-358.2 199.7-234 276 119.6 73.5 88.2 252 234 252s264-118.2 264-264-118.2-264-264-264z"/>
</symbol><symbol id="icon-ESL_Bb" viewBox="0 0 1391 886.9">
    <style>
        .st0{fill:#af7eeb}
    </style>
    <path class="st0" d="M1287.6 774.5c0 71.9-68.1 112.4-140 112.4s-130.2-58.3-130.2-130.2 58.3-130.2 130.2-130.2 140 76 140 148z"/>
    <path class="st0" d="M1391 135.4c0 74.8-81.2 135.4-156 135.4s-127-60.6-127-135.4S1168.6 0 1243.4 0 1391 60.6 1391 135.4z"/>
    <path class="st0" d="M428.6 181.1c0 51.6-16.2 86.2-55.4 113.1v3.1c49.2 21.5 77.7 65.4 77.7 132.3 0 99.3-80.8 152.4-189.3 152.4H33.1C8.5 582 0 573.5 0 549.6V67.9c0-24.6 8.5-33 33.1-33h225.5c106.1 0 170 52.3 170 146.2z"/>
    <path class="st0" d="M642.5 42.6v132.3c16.2-2.3 33.1-4.6 52.3-4.6 118.5 0 173.1 60.8 173.1 165.4v83.1c0 113.1-61.6 174.7-187.8 174.7-67.7 0-123.1-13.9-151.6-26.2-26.2-12.3-30-19.2-30-45.4V42.6c0-22.3 7.7-29.2 30-29.2h83.9c22.4-.1 30.1 6.8 30.1 29.2z"/>
</symbol><symbol id="icon-ESL_Cc" viewBox="0 0 1474.3 1299.6">
    <style>
        .st0,.st1{fill:#ff687d}.st1{fill-rule:evenodd;clip-rule:evenodd}
    </style>
    <path class="st0" d="M1414.2 148c0 71.9-68.1 112.4-140 112.4S1144 202.1 1144 130.2 1202.3 0 1274.2 0s140 76 140 148z"/>
    <path class="st0" d="M85.2 522.1c-75.6-20.7-98.7-103.9-78-179.6s98.7-120.2 174.4-99.6 120.2 98.7 99.6 174.4S161 542.8 85.2 522.1z"/>
    <path class="st0" d="M822.8 213c115.5 0 187.5 47.2 219 131.2 7.5 21.8 2.2 33-20.2 40.5l-80.2 28.5c-23.2 6.8-32.2 3-40.5-20.2-13.5-33.8-36-48.8-78-48.8-59.3 0-82.5 25.5-82.5 78v136.5c0 52.5 23.2 78 82.5 78 42 0 66-16.5 78-48.8 9-23.2 18-28.5 40.5-20.2l80.2 28.5c22.5 7.5 27.7 18.8 20.2 40.5-31.5 84-103.5 131.2-219 131.2-147.8 0-231-80.2-231-210V423c0-129.7 83.3-210 231-210z"/>
    <path class="st0" d="M1299.8 355.5c93.8 0 148.5 45.8 168.8 104.2 7.5 22.5 1.5 33-20.2 40.5l-69.8 23.2c-22.5 7.5-32.2 2.2-41.2-20.2s-22.5-30.8-44.2-30.8c-26.2 0-39.8 15-39.8 40.5v97.5c0 25.5 14.2 40.5 39.8 40.5 21.8 0 35.2-8.2 44.2-30.8s18-26.2 41.2-18.8l72 21.8c21.8 6.8 29.2 18 19.5 41.2-27 65.2-82.5 103.5-178.5 103.5-123.8 0-177.8-63-177.8-165.8v-81.8c0-100.9 57.8-164.7 186-164.7z"/>
    <path class="st1" d="M333.1 861.9c49.2 0 89 39.8 89 89s-39.8 89-89 89-89-39.8-89-89c0-49.1 39.8-89 89-89z"/>
    <g>
        <path class="st1" d="M1379.4 1247.4c-69.7 69.6-182.6 69.6-252.3 0-69.7-69.6-73.8-202.5 8.5-252.8 74.1-45.3 174.1-68.9 243.7.7 69.8 69.6 69.8 182.5.1 252.1z"/>
    </g>
</symbol><symbol id="icon-ESL_Dd" viewBox="0 0 1667.6 2088.8">
    <style>
        .st0{fill-rule:evenodd;clip-rule:evenodd}.st0,.st1{fill:#ffd669}
    </style>
    <path class="st0" d="M1410.3 295.9c-69.7 69.6-182.6 69.6-252.3 0-69.7-69.6-73.8-202.5 8.5-252.8 74.1-45.3 174.1-68.9 243.7.7 69.7 69.7 69.7 182.5.1 252.1z"/>
    <path class="st1" d="M445.5 408v112.5c0 129-82.5 210-230.2 210h-183C8.2 730.5 0 722.2 0 699V229.5C0 206.2 8.2 198 32.2 198h183c147.8 0 230.3 80.2 230.3 210z"/>
    <path class="st1" d="M698.2 329.2c18.8 0 36 1.5 50.2 2.2V204c0-21 7.5-28.5 29.2-28.5h81.8c21.8 0 29.2 7.5 29.2 28.5v468.8c0 24.8-6 32.2-31.5 42.8-32.2 12.8-78 26.2-154.5 26.2-119.2 0-174-60-174-162v-81c.1-110.3 58.6-169.6 169.6-169.6z"/>
    <path class="st0" d="M1374.3 817.9c-50-50.1-65.5-109.8-15.5-159.8 50-50.1 125.8-42.8 193.5-28.2 71.1 15.3 37.8 158.3-12.6 209.4-49.6 50.4-115.4 28.7-165.4-21.4z"/>
    <path class="st0" d="M1566.9 1274.4c68.8 16.3 113.5 58.9 97.3 127.7-16.1 68.9-84.4 102.6-149.7 125.8-68.5 24.4-115.5-114.7-99.6-184.7 15.8-68.9 83.2-85.1 152-68.8z"/>
    <path class="st0" d="M93.3 1218.6c-50-50.1-65.5-109.8-15.5-159.8 50-50.1 112.9-18.6 179.1 1.7 68.6 21 51.8 129.5 1.8 179.6-49.9 50-115.4 28.6-165.4-21.5z"/>
    <path class="st0" d="M1375.9 1976.1c0 62.3-50.4 112.7-112.7 112.7-62.3 0-99.2-53.1-108.4-109.2-10.2-62.5 46-116.3 108.3-116.3 62.3.1 112.8 50.6 112.8 112.8z"/>
</symbol><symbol id="icon-ESL_Ee" viewBox="0 0 1410.9 890.1">
    <style>
        .st0{fill-rule:evenodd;clip-rule:evenodd}.st0,.st1{fill:#51e3c2}
    </style>
    <path class="st0" d="M1405.9 112.8c0 62.3-50.4 112.7-112.7 112.7-62.3 0-99.2-53.1-108.4-109.2C1174.7 53.8 1230.9 0 1293.1 0c62.3 0 112.8 50.5 112.8 112.8z"/>
    <path class="st1" d="M957.1 322.1v67.5c0 24-8.2 32.2-32.2 32.2h-198v66.8h158.2c24 0 32.2 8.2 32.2 31.5v67.5c0 24-8.2 32.2-32.2 32.2H726.9v72h204.8c23.2 0 31.5 7.5 31.5 31.5v68.2c0 23.2-8.2 31.5-31.5 31.5h-321c-24 0-32.2-8.2-32.2-31.5V322.1c0-23.2 8.2-31.5 32.2-31.5h314.2c24 0 32.2 8.3 32.2 31.5z"/>
    <path class="st1" d="M1222.6 421.9c129.8 0 188.2 74.2 188.2 164.2v41.2c0 24-10.5 39-41.2 39h-195v14.2c0 35.2 19.5 48.8 48.8 48.8 32.2 0 48.8-13.5 60-27.8 9.8-14.2 18-18.8 42-7.5l51.8 22.5c20.2 9.8 25.5 22.5 14.2 43.5-28.5 49.5-83.2 74.2-169.5 74.2-134.2 0-186.8-75-186.8-173.2v-66c0-112.4 66-173.1 187.5-173.1z"/>
    <path class="st0" d="M89 368.9c-51-43.5-72.3-73.2-50.5-131.4 21.9-58.2 71.8-87.1 104.4-84.7 62.9 4.6 128 106.2 106.1 164.4-21.8 58.2-121.7 84.4-160 51.7z"/>
    <path class="st0" d="M.2 808.1C8.1 727-12.5 658.6 58.1 617.8c70.7-40.8 151.8 17.9 192.8 77.8 46.8 68.4 25.4 137.3-45.2 178.1C135 914.5-6.2 873.9.2 808.1z"/>
</symbol><symbol id="icon-ESL_Ff" viewBox="0 0 1938.2 2252">
    <style>
        .st0,.st1{fill:#af7eeb}.st1{fill-rule:evenodd;clip-rule:evenodd}
    </style>
    <path class="st0" d="M704.5 54v67.5c0 24-8.2 32.2-32.2 32.2h-198v87h158.2c24 0 32.2 8.2 32.2 31.5v67.5c0 24-8.2 32.2-32.2 32.2H474.3v151.5c0 23.2-7.5 31.5-31.5 31.5H358c-24 0-32.2-8.2-32.2-31.5V54c0-23.2 8.2-31.5 32.2-31.5h314.2c24.1 0 32.3 8.3 32.3 31.5z"/>
    <path class="st0" d="M1029.3 29.2V84c0 22.5-6.7 30-29.2 30-36.8 0-51 15.8-51 48v3h51.8c21.8 0 28.5 7.5 28.5 28.5v56.2c0 21.8-6.7 29.2-28.5 29.2H949v247.5c0 21-7.5 28.5-29.2 28.5h-81c-22.5 0-29.2-7.5-29.2-28.5V279h-24.8c-21.8 0-28.5-7.5-28.5-29.2v-56.2c0-21 6.8-28.5 28.5-28.5h24.8v-1.5C809.5 51 874.8.8 986.5 0h13.5c22.5 0 29.3 7.5 29.3 29.2z"/>
    <path class="st1" d="M1618.6 248.9c-114.6-7.1-192 171.5-342 109-114.1-47.6-219.3-52.5-323 28-103.4 80.3-254.9 64.4-395.9 27-137.3-36.5-237.1 99-237.1 99S261 585 153 642C98.1 671 35.4 743.4 0 788v1378.2c81.4 204.9 239.3-17 254.6-52.3 78.5-181.7 220.1-218.4 321-183 125 43.9 264 40.5 367-32 121.1-85.2 228.4-101.9 417-31 194.3 73 257.6-19.7 278-70 3.8-9.4 111.6-309.8 255.6-213.7 16.6 11.1 31.6 17.2 45 18.8V123.4c-26.5-60.7-168 134.9-319.6 125.5z"/>
</symbol><symbol id="icon-ESL_Gg" viewBox="0 0 1507.7 1740.1">
    <style>
        .st0,.st1{fill:#ffd669}.st1{fill-rule:evenodd;clip-rule:evenodd}
    </style>
    <path class="st0" d="M1033.3 410.8v99c0 105.8-82.5 186-230.2 186s-231-80.2-231-210v-135c0-129.8 83.3-210 231-210 115.5 0 187.5 47.2 219 131.3 7.5 21.8 2.2 33-20.2 40.5l-80.2 28.5c-23.2 7.5-32.2 3-40.5-20.2-13.5-33.8-36-48.8-78-48.8-59.2 0-82.5 25.5-82.5 78v136.5c0 52.5 23.2 78 82.5 78 50.2 0 81-18.8 81-51v-15h-72c-23.2 0-31.5-7.5-31.5-31.5v-56.2c0-24 8.2-32.2 31.5-32.2H1002c23.8-.1 31.3 8.1 31.3 32.1z"/>
    <path class="st0" d="M1295.8 283.3c66 0 120.8 12.8 147.8 25.5 25.5 11.2 29.2 18.8 29.2 43.5v331.5c0 99.8-50.2 173.2-180.8 173.2-84.8 0-135.8-24.8-167.2-74.2-12.8-20.2-6-33 14.2-43.5l63-30.8c21-10.5 30.8-5.2 40.5 7.5 11.2 14.2 22.5 27 48.8 27 28.5 0 41.2-15.8 41.2-43.5v-30c-15 2.2-32.2 4.5-51 4.5-115.5 0-168.8-59.2-168.8-161.2v-60c.1-109.5 60.1-169.5 183.1-169.5z"/>
    <path class="st1" d="M158.9 179.8c-34.6-51.7-95.5-57.8-73.6-116 21.9-58.2 66.5-62 98.4-63.7 76.7-4 134 85.2 112.1 143.4-21.8 58.2-108.9 78.1-136.9 36.3z"/>
    <path class="st1" d="M16.2 933C-13.3 853.3-5.6 825.4 65 784.5c70.7-40.8 92.2-25.3 160 17 70.3 43.9 31.1 167.7-39.5 208.6-70.6 40.8-146.3-15.2-169.3-77.1z"/>
    <path class="st1" d="M768.7 1005.6c47.5 0 86 38.5 86 86s-38.5 86-86 86-86-38.5-86-86 38.5-86 86-86z"/>
    <path class="st1" d="M1387.7 1478.1c71.7-7.2 120 59.4 120 131.5s-58.4 130.5-130.5 130.5-130.5-58.4-130.5-130.5 69-124.3 141-131.5z"/>
</symbol><symbol id="icon-ESL_Hh" viewBox="0 0 1609 1685.8">
    <style>
        .st0{fill-rule:evenodd;clip-rule:evenodd}.st0,.st1{fill:#51e3c2}
    </style>
    <path class="st0" d="M1413.5.5c71.7-7.2 120 59.4 120 131.5s-58.4 130.5-130.5 130.5-130.5-58.4-130.5-130.5S1341.4 7.7 1413.5.5z"/>
    <path class="st1" d="M642.4 169.8v469.5c0 23.2-8.2 31.5-31.5 31.5h-85.5c-23.2 0-31.5-8.2-31.5-31.5V466.8H348.4v172.5c0 23.2-7.5 31.5-31.5 31.5h-84.8c-24 0-32.2-8.2-32.2-31.5V169.8c0-24 8.2-32.2 32.2-32.2h84.8c24 0 31.5 8.2 31.5 32.2v165.8h145.5V169.8c0-24 8.2-32.2 31.5-32.2h85.5c23.3 0 31.5 8.2 31.5 32.2z"/>
    <path class="st1" d="M888.4 144.3v128.2c6.8-.8 27.8-3 51-3 115.5 0 168.8 60 168.8 162v210.7c0 21-6.8 28.5-28.5 28.5h-82.5c-21 0-28.5-7.5-28.5-28.5V436.8c0-28.5-15-41.2-45-41.2-16.5 0-32.2 2.2-35.2 3v243.7c0 21-6.8 28.5-28.5 28.5h-82.5c-21.8 0-28.5-7.5-28.5-28.5v-498c0-21 6.8-28.5 28.5-28.5H860c21.6 0 28.4 7.5 28.4 28.5z"/>
    <path class="st0" d="M1197 1216.1c.1-113.1 92.2-151.2 206-151.2 113.8-.1 206.1 37.9 206 151s-92.3 204.9-206.1 205c-113.8 0-205.9-91.7-205.9-204.8z"/>
    <path class="st0" d="M3.1 1435.1c20-116.8 121.8-139.8 239.1-119.8 117.4 20 205.9 75.4 185.9 192.2-20 116.8-131.3 195.2-248.7 175.2-117.3-20-196.3-130.9-176.3-247.6z"/>
</symbol><symbol id="icon-ESL_Ii" viewBox="0 0 1315.2 1095">
    <style>
        .st0{fill-rule:evenodd;clip-rule:evenodd}.st0,.st1{fill:#ff687d}
    </style>
    <path class="st0" d="M1218.2 228c32.6-74.1 91.4-127.8 34.2-185-57.2-57.3-150-57.3-207.3 0-57.2 57.3-65.1 140.8-7.9 198 57.3 57.2 154.5 47.2 181-13zm8 264c-49.2 0-89 39.8-89 89s39.8 89 89 89 89-39.8 89-89-39.8-89-89-89zM86 937.9c-26.7 15.4-41.1 26.1-43.3 63-1.3 21.9-3.9 33.3 5.4 49.4 24.7 42.8 79.5 57.4 122.3 32.7 42.8-24.7 57.5-79.4 32.8-122.1-24.7-42.8-74.4-47.7-117.2-23z"/>
    <path class="st1" d="M30 100.8h88.5c22.5 0 30 7.5 30 30v472.5c0 22.5-7.5 30-30 30H30c-22.5 0-30-7.5-30-30V130.8c0-22.5 7.5-30 30-30z"/>
    <path class="st1" d="M399.7 147.3v8.2c0 42-13.5 55.5-55.5 55.5h-37.5c-42.8 0-56.2-13.5-56.2-55.5v-8.2c0-42 13.5-55.5 56.2-55.5h37.5c42 0 55.5 13.5 55.5 55.5zm-4.5 124.5v333c0 21-7.5 28.5-29.2 28.5h-81.8c-21.8 0-29.2-7.5-29.2-28.5v-333c0-21 7.5-28.5 29.2-28.5H366c21.7 0 29.2 7.5 29.2 28.5z"/>
</symbol><symbol id="icon-ESL_Jj" viewBox="0 0 1938.2 2252">
    <style>
        .st0{fill:#ffd669}.st1,.st2{fill-rule:evenodd;clip-rule:evenodd;fill:#fff}.st2{fill:#ffd669}
    </style>
    <path class="st0" d="M0 123.4v1740.4c13.4-1.6 28.4-7.7 45-18.8 144-96.1 251.8 204.3 255.6 213.7 20.4 50.3 83.7 143 278 70 188.6-70.9 295.9-54.2 417 31 103 72.5 242 75.9 367 32 100.9-35.4 242.5 1.3 321 183 15.3 35.3 173.2 257.2 254.6 52.3V788c-35.4-44.6-98.1-117-153-146-108-57-167.6-130.1-167.6-130.1s-99.8-135.5-237.1-99c-141 37.4-292.5 53.3-395.9-27-103.7-80.5-208.9-75.6-323-28-150 62.5-272-147-386.6-139.9C123.4 227.4 26.5 62.7 0 123.4z"/>
    <path class="st0" d="M1282.8-49.8v316.5c0 123-70.5 196.5-206.2 196.5-103.5 0-165.8-46.5-195-126.8-8.2-21.8-2.2-32.2 19.5-40.5l78-27.8c22.5-8.2 33-4.5 42 18 12.8 30 28.5 45.8 58.5 45.8 36.8 0 54.8-21 54.8-64.5V-49.8c0-23.2 7.5-31.5 31.5-31.5h86.2c23.1.1 30.7 8.3 30.7 31.5z"/>
    <path class="st0" d="M1488.2 90.5v369c0 114.8-64.5 165-190.5 165-22.5 0-30-7.5-30-29.2v-63.8c0-22.5 7.5-30 30-30 36.8 0 51-18.8 51-51v-360c0-21 6.8-28.5 29.2-28.5h81c22.6 0 29.3 7.5 29.3 28.5zm4.5-124.5v8.2c0 42-12.8 55.5-55.5 55.5h-37.5c-42.8 0-55.5-13.5-55.5-55.5V-34c0-42 12.8-55.5 55.5-55.5h37.5c42.8 0 55.5 13.5 55.5 55.5z"/>
    <path class="st1" d="M533.1 1637.1c-49.4 0-83 44.7-83 94.1 0 59.9 60.4 74.8 83.4 74.8 49.4 0 89-30 89-79.5 0-49.4-40-89.4-89.4-89.4zM488.5 1301c-51.9 29.9-37.4 105.1-32.1 114.3 24.7 42.8 79.5 57.4 122.3 32.7 42.8-24.7 57.5-79.4 32.8-122.1-24.7-42.8-80.2-49.6-123-24.9zm582 400c0 3.9 3.1 18 7 18s7-14.1 7-18c0-3.9-3.1-7-7-7s-7 3.1-7 7zm0 249c-3.9 0-7 14.1-7 18s3.1 7 7 7 7-3.1 7-7-3.1-18-7-18zm95.4-212.4c-2.7 2.7-10.5 14.9-7.8 17.7 2.7 2.7 14.9-5 17.7-7.8 2.7-2.7 2.7-7.2 0-9.9s-7.1-2.7-9.9 0zm-193.7 183.9c-2.7 2.7-2.7 7.2 0 9.9s7.2 2.7 9.9 0 10.5-14.9 7.8-17.7c-2.8-2.7-15 5-17.7 7.8zm235.3-90.5c-3.9 0-18 3.1-18 7s14.1 7 18 7 7-3.1 7-7-3.1-7-7-7zm-267-7c-3.9 0-7 3.1-7 7s3.1 7 7 7 18-3.1 18-7-14.1-7-18-7zm212.7 94.7c-2.7 2.7 5 14.9 7.8 17.7 2.7 2.7 7.2 2.7 9.9 0s2.7-7.2 0-9.9-15-10.6-17.7-7.8zm-158.4-168.3c2.7-2.7-5-14.9-7.8-17.7-2.7-2.7-7.2-2.7-9.9 0s-2.7 7.2 0 9.9c2.8 2.7 15 10.5 17.7 7.8zm113.7-1.3c-45.1-17.8-96.1 4.4-113.9 49.6-17.8 45.2 4.3 96.2 49.4 114 45.1 17.8 91.8-10.9 109.6-56.1 21.6-54.8-35.4-103.7-45.1-107.5zm45.2-294.5c21.6-54.8-35.4-103.7-45.1-107.5-45.1-17.8-96.1 4.4-113.9 49.6-17.8 45.2 4.3 96.2 49.4 114 45 17.7 91.7-10.9 109.6-56.1zM488.5 903c-51.9 29.9-37.4 105.1-32.1 114.3 24.7 42.8 79.5 57.4 122.3 32.7 42.8-24.7 57.5-79.4 32.8-122.1-24.7-42.8-80.2-49.6-123-24.9zm650.7 219c34.9-34.9 27.1-90.3-7.8-125.2-42.4-42.4-111.2-8.9-118.7-1.4-34.9 34.9-34.9 91.6 0 126.6s91.5 35 126.5 0zm-23.5-356c42.8-24.7 57.5-79.4 32.8-122.1-24.7-42.8-80.2-49.5-123-24.9-51.9 29.9-37.4 105.1-32.1 114.3 24.8 42.7 79.5 57.4 122.3 32.7zM495.3 454.9c-26.7 15.4-54.3 27.7-43.3 63 5.1 16.5-3.9 33.3 5.4 49.4 24.7 42.8 79.5 57.4 122.3 32.7 42.8-24.7 57.5-79.4 32.8-122.1-24.7-42.8-74.4-47.7-117.2-23z"/>
    <path class="st2" d="M595.5-104.1c24.7 42.8 10 97.5-32.8 122.1-42.8 24.7-97.6 10-122.3-32.7-9.3-16.1-6.7-27.4-5.4-49.4 2.2-37 16.5-47.6 43.3-63 42.8-24.7 92.5-19.8 117.2 23z"/>
</symbol><symbol id="icon-ESL_Kk" viewBox="0 0 860.3 555">
    <style>
        .st0{fill:#51e3c2}
    </style>
    <path class="st0" d="M426 555h-81c-39.8 0-54-5.2-66.8-31.5L213 389.2c-12-24-22.5-37.5-51-37.5h-13.5v171.8c0 23.2-7.5 31.5-31.5 31.5H32.2C8.2 555 0 546.8 0 523.5V54c0-23.2 8.2-31.5 32.2-31.5H117c24 0 31.5 8.2 31.5 31.5v166.5H165L273 50.2c14.2-23.2 21-27.8 60-27.8h86.2c22.5 0 30 13.5 18 33L300.8 273c18.8 13.5 33 32.2 45.8 57.8l99 187.5C456 538.5 450.8 555 426 555z"/>
    <path class="st0" d="M830.2 555h-69c-34.5 0-45.8-4.5-54.8-28.5l-33.8-90c-6.8-15.8-17.2-22.5-34.5-22.5h-13.5v111.8c0 21.8-7.5 29.2-29.2 29.2h-81.8c-21.8 0-28.5-7.5-28.5-29.2V29.2C485.2 7.5 492 0 513.7 0h81.8c21.8 0 29.2 7.5 29.2 29.2V300h15.8l63-108c12-22.5 21.8-27 54-27h66.8c30 0 36.8 14.2 23.2 36.8l-84.8 145.5c9 7.5 17.2 18.8 24.8 33.8l66 135.8C867 543 861 555 830.2 555z"/>
</symbol><symbol id="icon-Get_it_on_Google_play" viewBox="0 0 40 44">
    <style>
        .st0{fill:url(#path64_1_)}.st1{fill:url(#path78_1_)}.st2{fill:url(#path88_1_)}.st3{fill:url(#path104_1_)}
    </style>
    <g id="g10" transform="matrix(1.25 0 0 -1.25 -9.425 49.85)">
        <g id="g12" transform="matrix(1.0024 0 0 .99073 -.297 0)">
            <g id="g48">
                <linearGradient id="path64_1_" gradientUnits="userSpaceOnUse" x1="31.661" y1="157.053" x2="2.66" y2="128.053" gradientTransform="matrix(1.0024 0 0 -.9907 -7.568 162.465)">
                    <stop offset="0" stop-color="#00a0ff"/>
                    <stop offset=".007" stop-color="#00a1ff"/>
                    <stop offset=".26" stop-color="#00beff"/>
                    <stop offset=".512" stop-color="#00d2ff"/>
                    <stop offset=".76" stop-color="#00dfff"/>
                    <stop offset="1" stop-color="#00e3ff"/>
                </linearGradient>
                <path id="path64" class="st0" d="M8.5 39.7c-.4-.4-.6-1.1-.6-1.9V7.2c0-.9.2-1.5.6-1.9l.1-.1 17.1 17.1v.4L8.6 39.8l-.1-.1z"/>
            </g>
            <g id="g66">
                <linearGradient id="path78_1_" gradientUnits="userSpaceOnUse" x1="48.26" y1="141.298" x2="6.446" y2="141.298" gradientTransform="matrix(1.0024 0 0 -.9907 -7.568 162.465)">
                    <stop offset="0" stop-color="#ffe000"/>
                    <stop offset=".409" stop-color="#ffbd00"/>
                    <stop offset=".775" stop-color="orange"/>
                    <stop offset="1" stop-color="#ff9c00"/>
                </linearGradient>
                <path id="path78" class="st1" d="M31.4 16.6l-5.7 5.7v.4l5.7 5.7.1-.1 6.8-3.8c1.9-1.1 1.9-2.9 0-4l-6.8-3.8c0-.1-.1-.1-.1-.1z"/>
            </g>
            <g id="g80">
                <linearGradient id="path88_1_" gradientUnits="userSpaceOnUse" x1="24.329" y1="149.738" x2="-14.999" y2="110.41" gradientTransform="matrix(1.0024 0 0 -.9907 -7.568 162.465)">
                    <stop offset="0" stop-color="#ff3a44"/>
                    <stop offset="1" stop-color="#c31162"/>
                </linearGradient>
                <path id="path88" class="st2" d="M31.5 16.6l-5.8 5.8L8.5 5.2c.6-.7 1.7-.8 2.9-.1l20.1 11.5"/>
            </g>
            <g id="g90">
                <linearGradient id="path104_1_" gradientUnits="userSpaceOnUse" x1=".156" y1="157.319" x2="17.717" y2="139.757" gradientTransform="matrix(1.0024 0 0 -.9907 -7.568 162.465)">
                    <stop offset="0" stop-color="#32a071"/>
                    <stop offset=".069" stop-color="#2da771"/>
                    <stop offset=".476" stop-color="#15cf74"/>
                    <stop offset=".801" stop-color="#06e775"/>
                    <stop offset="1" stop-color="#00f076"/>
                </linearGradient>
                <path id="path104" class="st3" d="M31.5 28.3L11.3 39.8c-1.2.7-2.2.6-2.9-.1l17.2-17.2 5.9 5.8z"/>
            </g>
        </g>
    </g>
</symbol><symbol id="icon-icon_arrow" viewBox="0 0 11.2 21">
    <path d="M.5 21c-.1 0-.3 0-.4-.1-.2-.2-.2-.5 0-.7l9.6-9.6L.1.9C0 .7 0 .3.1.1s.5-.2.7 0l10.4 10.4L.9 20.9c-.1.1-.3.1-.4.1z"/>
</symbol><symbol id="icon-icon_arrow_link" viewBox="0 0 4 7">
    <path d="M.8 6.7L.1 6l2.5-2.5L.1 1 .8.3 4 3.5z"/>
</symbol><symbol id="icon-icon_arrow_small" viewBox="0 0 8 14">
    <path d="M1 13.7L.3 13l6-6-6-6L1 .3 7.7 7z"/>
</symbol><symbol id="icon-icon_calendar" viewBox="0 0 40 40">
    <style>
        .st0{fill:none;stroke:#000;stroke-miterlimit:10}
    </style>
    <path class="st0" d="M0 12.5h40"/>
    <path class="st0" d="M0 4.5h40"/>
    <path class="st0" d="M31.5 0v8"/>
    <path class="st0" d="M39.5 4v8"/>
    <path class="st0" d="M.5 4v8"/>
    <path class="st0" d="M8.5 0v8"/>
    <path class="st0" d="M.5 16.5h39v23H.5z"/>
</symbol><symbol id="icon-icon_check" viewBox="0 0 24.1 19.2">
    <style>
        .st0{fill:none;stroke:#000;stroke-miterlimit:10}
    </style>
    <path class="st0" d="M.4 13.3l5.2 5.2L23.8.4"/>
</symbol><symbol id="icon-icon_eat" viewBox="0 0 60.6 40">
    <style>
        .st0{fill:none;stroke:#000;stroke-miterlimit:10}
    </style>
    <circle class="st0" cx="20" cy="20" r="19.5"/>
    <circle class="st0" cx="20" cy="20" r="14.3"/>
    <path d="M56.1 25c1.9 0 3.5 1.5 3.5 3.4 0 2.2-1.9 6.6-3.5 6.6s-3.5-4.3-3.5-6.6c0-1.9 1.6-3.4 3.5-3.4m0-1c-2.5 0-4.5 2-4.5 4.4s2 7.6 4.5 7.6 4.5-5.1 4.5-7.6-2-4.4-4.5-4.4z"/>
    <path class="st0" d="M42.6 3v4.6c0 2.4 2 4.4 4.5 4.4s4.5-2 4.5-4.4V3"/>
    <path class="st0" d="M56.1 25V3"/>
    <path class="st0" d="M47.1 37V3"/>
</symbol><symbol id="icon-icon_fb" viewBox="0 0 9 15.9">
    <style>
        .st0{clip-path:url(#SVGID_2_)}
    </style>
    
    <clipPath id="SVGID_2_">
        <use xlink:href="#SVGID_1_" overflow="visible"/>
    </clipPath>
    <path class="st0" d="M8.7 0H6.5c-2.4 0-4 1.5-4 3.9v1.8H.3c-.1.1-.3.2-.3.4v2.6c0 .2.2.3.3.3h2.2v6.6c0 .2.2.3.3.3h2.8c.3.1.4 0 .4-.2V9h2.5c.2 0 .3-.1.3-.3V6.1c0-.1 0-.2-.1-.2s-.1-.1-.1-.1H6V4.2c0-.7.2-1.1 1.2-1.1h1.5c.1 0 .3-.1.3-.3V.3c0-.2-.2-.3-.3-.3"/>
</symbol><symbol id="icon-icon_free" viewBox="0 0 40 40">
    <style>
        .st0{fill:none;stroke:#000;stroke-miterlimit:10}
    </style>
    <path class="st0" d="M23.5 39.5h-19c-2.2 0-4-1.8-4-4v-31c0-2.2 1.8-4 4-4h19c2.2 0 4 1.8 4 4v31c0 2.2-1.8 4-4 4z"/>
    <path class="st0" d="M29 3.6l8.6 4.9c1.9 1.1 2.6 3.6 1.5 5.5L29 31.4"/>
    <path class="st0" d="M7 19h14"/>
    <path class="st0" d="M7 15h14"/>
    <path class="st0" d="M7 23h10"/>
</symbol><symbol id="icon-icon_insta" viewBox="0 0 14 14">
    <circle cx="7" cy="7" r="2.4"/>
    <path d="M10.1 0H3.9C1.7 0 0 1.7 0 3.9v6.3C0 12.3 1.7 14 3.9 14h6.3c2.1 0 3.9-1.7 3.9-3.9V3.9C14 1.7 12.3 0 10.1 0zM7 10.6C5 10.6 3.4 9 3.4 7S5 3.4 7 3.4 10.6 5 10.6 7 9 10.6 7 10.6zm4.4-6.7c-.2.2-.4.3-.6.3-.2 0-.5-.1-.6-.3-.3-.2-.4-.4-.4-.6 0-.2.1-.5.3-.6.2-.2.4-.3.6-.3.2 0 .5.1.6.3.2.2.3.4.3.6.1.2 0 .4-.2.6z"/>
</symbol><symbol id="icon-icon_love" viewBox="0 0 50 40.9">
    <style>
        .st0{fill:none;stroke:#000;stroke-miterlimit:10}
    </style>
    <path class="st0" d="M49.5 15.1C49.5 7 43 .5 34.9.5 31.1.5 27.6 2 25 4.4 22.4 2 18.9.5 15.1.5 7 .5.5 7 .5 15.1c0 4.7 2.2 8.9 5.7 11.6l.4.3c.2.1.3.2.5.4l18.2 12.9 18.4-13.4c3.5-2.7 5.8-7 5.8-11.8z"/>
    <path class="st0" d="M36.6 15.7h-9.7l-2.3-7.9-2.4 7.9h-9.6l7.6 5.9-3.1 8.8 7.5-5.8 7.5 5.8-3.1-8.8z"/>
</symbol><symbol id="icon-icon_menu" viewBox="0 0 50 25">
    <style>
        .st0{fill-rule:evenodd;clip-rule:evenodd}
    </style>
    <path class="st0" d="M0 0v1h50V0H0zm0 12h50v-2H0v2zm0 13h50v-4H0v4z"/>
</symbol><symbol id="icon-icon_menu_close" viewBox="0 0 38.2 38.2">
    <style>
        .st0{fill-rule:evenodd;clip-rule:evenodd}
    </style>
    <path class="st0" d="M38.2 35.4L20.9 18 37.1 1.8l-.7-.7-16.2 16.2L2.8 0 0 2.8l17.3 17.4L1.1 36.4l.7.7L18 20.9l17.4 17.3z"/>
</symbol><symbol id="icon-icon_menu_hover" viewBox="0 0 50 13">
    <style>
        .st0{fill-rule:evenodd;clip-rule:evenodd}
    </style>
    <path class="st0" d="M0 0v1h50V0H0zm0 13h50V9H0v4z"/>
</symbol><symbol id="icon-icon_mobile" viewBox="0 0 28 40">
    <style>
        .st0{fill:none;stroke:#000;stroke-miterlimit:10}
    </style>
    <path class="st0" d="M22.5 39.5h-17c-2.8 0-5-2.2-5-5v-29c0-2.8 2.2-5 5-5h17c2.8 0 5 2.2 5 5v29c0 2.7-2.3 5-5 5z"/>
    <circle class="st0" cx="14.3" cy="34" r="3"/>
</symbol><symbol id="icon-icon_money" viewBox="0 0 40 40">
    <style>
        .st0{fill:none;stroke:#000;stroke-miterlimit:10}
    </style>
    <path class="st0" d="M22.6 31.8s12.7 5 15-4.1c1.2-5.8-7.1-8.5-7.1-8.5l-.5-.1s-8.5-2.2-7.3-8C25 2 37.6 7 37.6 7"/>
    <path class="st0" d="M29.5 6V0"/>
    <path class="st0" d="M8.5 30V13"/>
    <path class="st0" d="M0 21.5h17"/>
    <path class="st0" d="M29.5 40v-7"/>
</symbol><symbol id="icon-icon_pause" viewBox="0 0 18 17">
    <style>
        .st0{fill-rule:evenodd;clip-rule:evenodd}
    </style>
    <path class="st0" d="M16 0h-2c-1.1 0-2 .9-2 2v13c0 1.1.9 2 2 2h2c1.1 0 2-.9 2-2V2c0-1.1-.9-2-2-2zM4 0H2C.9 0 0 .9 0 2v13c0 1.1.9 2 2 2h2c1.1 0 2-.9 2-2V2c0-1.1-.9-2-2-2z"/>
</symbol><symbol id="icon-icon_piin" viewBox="0 0 30 40.1">
    <style>
        .st0{fill:none;stroke:#000;stroke-miterlimit:10}
    </style>
    <path class="st0" d="M29.5 15.1C29.5 27.8 15 39.5 15 39.5S.5 27.9.5 15.1C.5 7 7 .5 15 .5S29.5 7 29.5 15.1z"/>
    <ellipse class="st0" cx="15" cy="14.3" rx="4.8" ry="4.9"/>
</symbol><symbol id="icon-icon_pin" viewBox="0 0 50 60">
    <path d="M50 25c0 13.8-25 35-25 35 0 .4-25-21.2-25-35S11.2 0 25 0s25 11.2 25 25z"/>
</symbol><symbol id="icon-icon_play" viewBox="0 0 17.4 16.5">
    <path d="M4.5 16.1C2 17.3 0 16.1 0 13.3v-10C0 .5 2-.7 4.5.5L15.6 6c2.4 1.3 2.4 3.3-.1 4.5l-11 5.6z"/>
</symbol><symbol id="icon-icon_speak" viewBox="0 0 50 41">
    <style>
        .st0{fill:none;stroke:#000;stroke-miterlimit:10}
    </style>
    <path class="st0" d="M32.3.5H18.4C8.8.5.5 7.8.5 17.4V40l5.7-4.4h26.1c9.6 0 17.2-8.6 17.2-18.1 0-9.7-7.7-17-17.2-17z"/>
    <circle class="st0" cx="14.8" cy="17.5" r="2.5"/>
    <circle class="st0" cx="25" cy="17.5" r="2.5"/>
    <circle class="st0" cx="35.2" cy="17.5" r="2.5"/>
</symbol><symbol id="icon-icon_support_1" viewBox="0 0 40 40">
    <style>
        .st0{fill:none;stroke:#000;stroke-miterlimit:10}
    </style>
    <path d="M37 36h-1v-5h-5v-1h6z"/>
    <path class="st0" d="M31.2 20H20.1V4"/>
    <path class="st0" d="M36.1 31c-3.5 5.1-9.4 8.5-16.1 8.5C9.2 39.5.5 30.8.5 20"/>
    <path class="st0" d="M3.6 9.4C7.1 4 13.1.5 20 .5 30.8.5 39.5 9.2 39.5 20"/>
    <path class="st0" d="M31 30.5h5.5V36"/>
    <path class="st0" d="M3.6 4.1v5.5h5.5"/>
</symbol><symbol id="icon-icon_support_2" viewBox="0 0 40 40">
    <style>
        .st0{fill:none;stroke:#000;stroke-miterlimit:10}
    </style>
    <path d="M37 36h-1v-5h-5v-1h6z"/>
    <path class="st0" d="M36.1 31c-3.5 5.1-9.4 8.5-16.1 8.5C9.2 39.5.5 30.8.5 20"/>
    <path class="st0" d="M3.6 9.4C7.1 4 13.1.5 20 .5 30.8.5 39.5 9.2 39.5 20"/>
    <path class="st0" d="M31 30.5h5.5V36"/>
    <path class="st0" d="M3.6 4.1v5.5h5.5"/>
    <path class="st0" d="M9.9 23.2l5.2 5.2 18.2-18.2"/>
</symbol><symbol id="icon-icon_time" viewBox="0 0 41 41">
    <style>
        .st0{fill:none;stroke:#000;stroke-miterlimit:10}
    </style>
    <circle class="st0" cx="20.5" cy="20.5" r="20"/>
    <path class="st0" d="M20.5 4.8v18"/>
    <path class="st0" d="M18.4 18.4l8.3 8.3"/>
</symbol><symbol id="icon-icon_vk" viewBox="0 0 24.1 14">
    <path d="M.5 2.9c.9 2 2.4 4.3 4.3 7.1.7.8 1.2 1.3 1.6 1.7.4.4.9.8 1.5 1.2.6.5 1.3.7 2.1.9s1.5.2 2.5.2h.7c.2 0 .4-.1.6-.3.2-.2.3-.4.4-.8l.2-1.5c.2-.5.4-.6.8-.6.4.1.7.2.9.5.3.5.8 1.1 1.5 1.8.8.7 1.5 1 2 1h3.9c.4 0 .5-.3.7-.6.1-.3 0-.7-.2-1.2-.6-.9-1.6-1.9-3.1-3.3-.7-.7-.5-1.5.4-2.6.7-.8 1.5-1.8 2.2-2.9.8-1.2 1-1.9.7-2.3-.2-.2-.3-.2-.4-.2h-4.4c-.4 0-.6 0-.7.1s-.2.2-.4.6c0 0-1.3 3.6-2.9 5-.4-.1-.4.1-.8.1-.5 0-.6-1.3-.6-1.8V3.7c.1-.5.1-.9.2-1.3.1-.5.1-.7.1-.9 0-.9-.6-1.4-1.8-1.4 0 0-.3 0-.9-.1s-.9 0-1.3 0C8.9 0 8 .3 7.8.9c1 .3 1.5 1.1 1.5 2.3 0 1.9-.1 2.9-.2 2.9-.2.8-.6.9-1.2.3C7 5.2 6 3.5 5 1.3 4.8.9 4.5.6 4.1.7H.7C.4.7.2.8 0 .9c0 .6.2 1.3.5 2z"/>
</symbol><symbol id="icon-logo_ESL" viewBox="0 0 97.6 40">
    <style>
        .st0{fill:#51e3c2}.st1{fill:#344c57}
    </style>
    <circle class="st0" cx="20" cy="20" r="20"/>
    <path class="st1" d="M14.7 15.5v.5c0 .3-.1.4-.4.4H9.8v2.9h3.9c.3 0 .4.1.4.4v.5c0 .3-.1.4-.4.4H9.8v3.1h4.7c.3 0 .4.1.4.4v.5c0 .3-.1.4-.4.4H8.8c-.3 0-.4-.1-.4-.4v-8.9c0-.3.1-.4.4-.4h5.5c.3-.1.4 0 .4.2z"/>
    <path class="st1" d="M19.9 15c1.9 0 2.9.7 3.6 2.1.1.2.1.4-.2.5l-.6.3c-.2.1-.3.1-.5-.2-.5-.9-1.1-1.4-2.3-1.4-1.5 0-2.3.5-2.3 1.5 0 1.2 1.3 1.4 2.6 1.6 1.6.2 3.4.5 3.4 2.7 0 1.8-1.3 3-3.8 3-2 0-3.1-.8-3.7-2.3-.1-.3 0-.4.2-.5l.7-.3c.2-.1.4 0 .5.2.4 1 1.2 1.5 2.5 1.5 1.6 0 2.4-.5 2.4-1.7s-1.1-1.4-2.4-1.5c-1.7-.2-3.6-.4-3.6-2.7-.1-1.6 1.2-2.8 3.5-2.8z"/>
    <path class="st1" d="M26.9 15.5v8.1h4.3c.3 0 .4.1.4.4v.5c0 .3-.1.4-.4.4H26c-.3 0-.4-.1-.4-.4v-8.9c0-.3.1-.4.4-.4h.6c.2 0 .3.1.3.3z"/>
    <g>
        <path class="st1" d="M51.8 25c-2.7 0-4.4-2-4.4-5.1 0-3.1 1.7-5 4.4-5 2.1 0 3.7 1.2 4 3.1h-1c-.4-1.4-1.6-2.3-3.1-2.3-2.1 0-3.5 1.6-3.5 4.2s1.4 4.3 3.5 4.3c1.9 0 3.2-1.2 3.2-3.1v-.3h-3.1V20h4v1c.1 2.4-1.4 4-4 4z"/>
        <path class="st1" d="M60.2 14.5h.9v10.3h-.9V14.5z"/>
        <path class="st1" d="M65.2 21.1c0-2.3 1.3-3.8 3.3-3.8s3.3 1.5 3.3 3.8-1.3 3.8-3.3 3.8-3.3-1.5-3.3-3.8zm5.8 0c0-1.8-.9-3-2.4-3s-2.4 1.1-2.4 3c0 1.8.9 3 2.4 3s2.4-1.1 2.4-3z"/>
        <path class="st1" d="M76.9 23.3v1.6H76V14.5h.9V19c.4-1 1.4-1.6 2.5-1.6 1.8 0 3.1 1.5 3.1 3.8S81.2 25 79.4 25c-1.1-.1-2-.7-2.5-1.7zm0-2.2c0 1.7 1 2.9 2.4 2.9s2.4-1.2 2.4-3-.9-3-2.4-3c-1.4.2-2.4 1.4-2.4 3.1z"/>
        <path class="st1" d="M86.3 22.8c0-1.3.9-2 2.7-2.1l2.3-.2v-.6c0-1.1-.7-1.7-1.9-1.7-1 0-1.7.5-1.9 1.4h-.9c.1-1.3 1.2-2.2 2.8-2.2 1.7 0 2.8.9 2.8 2.4v5h-.9v-1.4c-.4.9-1.4 1.5-2.5 1.5-1.5 0-2.5-.9-2.5-2.1zm5-.7v-.8l-2.2.2c-1.2.1-1.9.6-1.9 1.4 0 .8.7 1.3 1.7 1.3 1.4-.1 2.4-1 2.4-2.1z"/>
        <path class="st1" d="M96.7 14.5h.9v10.3h-.9V14.5z"/>
    </g>
</symbol><symbol id="icon-Oops" viewBox="0 0 1170 460.6">
    <style>
        .st0{fill:#fb5b71}
    </style>
    <path class="st0" d="M150.3 0c96.1 0 149.8 52.2 149.8 136.6v87.8c0 84.4-53.7 136.6-149.8 136.6C53.7 361.1 0 308.9 0 224.4v-87.8C0 52.2 53.7 0 150.3 0z"/>
    <path class="st0" d="M475.7 92.7c80 0 121 40.5 121 106.9v54.6c0 66.4-41 106.9-121 106.9-79 0-121-40.5-121-106.9v-54.6c0-66.4 42-106.9 121-106.9z"/>
    <path class="st0" d="M776.7 92.7c76.6 0 111.7 39 111.7 105.4v52.7c0 71.7-38.5 110.3-113.7 110.3-10.2 0-20-1.5-29.3-2.4v83.4c0 14.1-4.9 18.5-19 18.5h-53.2c-14.1 0-19-4.4-19-18.5V137.6c0-16.1 3.9-21.5 20.5-28.3 21.1-8.3 51.8-16.6 102-16.6z"/>
    <path class="st0" d="M1048 92.7c62.9 0 94.7 19.5 112.7 52.2 6.8 12.7 4.4 20.5-10.2 26.8l-37.1 16.1c-15.6 6.8-18.1 2-25.4-6.8-6.3-7.8-15.1-13.7-35.1-13.7-24.4 0-30.7 3.9-30.7 13.2 0 10.2 8.3 13.7 40 16.1 77.6 6.3 107.8 26.3 107.8 78.1 0 52.2-40 86.4-114.7 86.4-62 0-101.5-20-116.1-58.1-5.4-13.2-1.5-20.5 11.7-25.4l38.5-13.7c15.6-5.4 20.5-2 25.9 7.3 5.4 9.3 14.6 15.6 36.6 15.6 25.9 0 35.1-4.4 35.1-15.1 0-12.7-8.8-15.6-46.4-18.1-61-3.9-101.5-21-101.5-77.6.1-50.1 36.2-83.3 108.9-83.3z"/>
</symbol><symbol id="icon-Vintage_logo" viewBox="0 0 70 15">
    <path d="M2.7.2H0l.6 2.5h2.8z"/>
    <path d="M12.4.2h2.8v14.6h-2.8z"/>
    <path d="M25 8.9L21.1.2H18v14.6h2.6V5.4l4.3 9.4h2.7V.2H25z"/>
    <path d="M38.7.2h-9.3v2.5h3.2v12.1h2.8V2.7h3.3z"/>
    <path d="M42.2.2l-3.6 14.6h2.7l.8-3.1H46l.7 3.1h2.7L45.8.2h-3.6zm.4 9.1L44 3.4l1.4 5.9h-2.8z"/>
    <path d="M55.2 2.5c1 0 1.7.6 1.7 2.5h2.8c-.1-3.3-1.6-5-4.5-5-2.7 0-4.6 1.3-4.6 4.9v5.2c0 3.6 1.9 4.9 4.6 4.9 1.1 0 1.9-.6 2.6-1.4l.4 1.2h1.5V7.3H55v2.3h2v.9c0 1.3-.6 2-1.7 2s-1.8-.4-1.8-2.1v-6c-.1-1.5.6-1.9 1.7-1.9z"/>
    <path d="M64.9 12.4V8.5h3.7V6h-3.7V2.7h4.9V.2h-7.7v14.6H70v-2.4z"/>
    <path d="M8 .2L4.3 14.8h2.6L10.6.2z"/>
</symbol></svg>