<?xml version="1.0" encoding="UTF-8"?><!DOCTYPE svg PUBLIC "-//W3C//DTD SVG 1.1//EN" "http://www.w3.org/Graphics/SVG/1.1/DTD/svg11.dtd"><svg xmlns="http://www.w3.org/2000/svg" xmlns:xlink="http://www.w3.org/1999/xlink"><defs>
        <path id="SVGID_1_" d="M0 0h9v15.9H0z"/>
    </defs><symbol id="icon-facebook" viewBox="0 0 10 19">
    <title>
        facebook
    </title>
    <path d="M9.766.157v2.946H8.014c-.64 0-1.071.134-1.295.402-.223.268-.335.67-.335 1.205v2.11h3.27l-.435 3.303H6.384v8.471H2.97v-8.47H.123V6.82H2.97V4.387c0-1.384.387-2.457 1.161-3.22C4.904.404 5.934.023 7.222.023c1.093 0 1.941.045 2.544.134z" fill-rule="evenodd"/>
</symbol><symbol id="icon-icon_fb" viewBox="0 0 9 15.9">
    <style>
        .st0{clip-path:url(#SVGID_2_)}
    </style>
    
    <clipPath id="SVGID_2_">
        <use xlink:href="#SVGID_1_" overflow="visible"/>
    </clipPath>
    <path class="st0" d="M8.7 0H6.5c-2.4 0-4 1.5-4 3.9v1.8H.3c-.1.1-.3.2-.3.4v2.6c0 .2.2.3.3.3h2.2v6.6c0 .2.2.3.3.3h2.8c.3.1.4 0 .4-.2V9h2.5c.2 0 .3-.1.3-.3V6.1c0-.1 0-.2-.1-.2s-.1-.1-.1-.1H6V4.2c0-.7.2-1.1 1.2-1.1h1.5c.1 0 .3-.1.3-.3V.3c0-.2-.2-.3-.3-.3"/>
</symbol><symbol id="icon-icon_insta" viewBox="0 0 14 14">
    <circle cx="7" cy="7" r="2.4"/>
    <path d="M10.1 0H3.9C1.7 0 0 1.7 0 3.9v6.3C0 12.3 1.7 14 3.9 14h6.3c2.1 0 3.9-1.7 3.9-3.9V3.9C14 1.7 12.3 0 10.1 0zM7 10.6C5 10.6 3.4 9 3.4 7S5 3.4 7 3.4 10.6 5 10.6 7 9 10.6 7 10.6zm4.4-6.7c-.2.2-.4.3-.6.3-.2 0-.5-.1-.6-.3-.3-.2-.4-.4-.4-.6 0-.2.1-.5.3-.6.2-.2.4-.3.6-.3.2 0 .5.1.6.3.2.2.3.4.3.6.1.2 0 .4-.2.6z"/>
</symbol><symbol id="icon-icon_vk" viewBox="0 0 24.1 14">
    <path d="M.5 2.9c.9 2 2.4 4.3 4.3 7.1.7.8 1.2 1.3 1.6 1.7.4.4.9.8 1.5 1.2.6.5 1.3.7 2.1.9s1.5.2 2.5.2h.7c.2 0 .4-.1.6-.3.2-.2.3-.4.4-.8l.2-1.5c.2-.5.4-.6.8-.6.4.1.7.2.9.5.3.5.8 1.1 1.5 1.8.8.7 1.5 1 2 1h3.9c.4 0 .5-.3.7-.6.1-.3 0-.7-.2-1.2-.6-.9-1.6-1.9-3.1-3.3-.7-.7-.5-1.5.4-2.6.7-.8 1.5-1.8 2.2-2.9.8-1.2 1-1.9.7-2.3-.2-.2-.3-.2-.4-.2h-4.4c-.4 0-.6 0-.7.1s-.2.2-.4.6c0 0-1.3 3.6-2.9 5-.4-.1-.4.1-.8.1-.5 0-.6-1.3-.6-1.8V3.7c.1-.5.1-.9.2-1.3.1-.5.1-.7.1-.9 0-.9-.6-1.4-1.8-1.4 0 0-.3 0-.9-.1s-.9 0-1.3 0C8.9 0 8 .3 7.8.9c1 .3 1.5 1.1 1.5 2.3 0 1.9-.1 2.9-.2 2.9-.2.8-.6.9-1.2.3C7 5.2 6 3.5 5 1.3 4.8.9 4.5.6 4.1.7H.7C.4.7.2.8 0 .9c0 .6.2 1.3.5 2z"/>
</symbol></svg>