<svg xmlns="http://www.w3.org/2000/svg" viewBox="0 0 70 15">
    <path d="M2.7.2H0l.6 2.5h2.8z"/>
    <path d="M12.4.2h2.8v14.6h-2.8z"/>
    <path d="M25 8.9L21.1.2H18v14.6h2.6V5.4l4.3 9.4h2.7V.2H25z"/>
    <path d="M38.7.2h-9.3v2.5h3.2v12.1h2.8V2.7h3.3z"/>
    <path d="M42.2.2l-3.6 14.6h2.7l.8-3.1H46l.7 3.1h2.7L45.8.2h-3.6zm.4 9.1L44 3.4l1.4 5.9h-2.8z"/>
    <path d="M55.2 2.5c1 0 1.7.6 1.7 2.5h2.8c-.1-3.3-1.6-5-4.5-5-2.7 0-4.6 1.3-4.6 4.9v5.2c0 3.6 1.9 4.9 4.6 4.9 1.1 0 1.9-.6 2.6-1.4l.4 1.2h1.5V7.3H55v2.3h2v.9c0 1.3-.6 2-1.7 2s-1.8-.4-1.8-2.1v-6c-.1-1.5.6-1.9 1.7-1.9z"/>
    <path d="M64.9 12.4V8.5h3.7V6h-3.7V2.7h4.9V.2h-7.7v14.6H70v-2.4z"/>
    <path d="M8 .2L4.3 14.8h2.6L10.6.2z"/>
</svg>
