<svg xmlns="http://www.w3.org/2000/svg" viewBox="0 0 945.02 558.1"><defs><style>.cls-1{fill:#51e3c2;}</style></defs><title>Ресурс 1</title><g id="Слой_2" data-name="Слой 2"><g id="Layer_1" data-name="Layer 1"><path class="cls-1" d="M503.82,546.6h-83.2c-40,0-51.6-8.5-57.7-32.3l-17.7-55.4H178.93l-17.7,55.4c-7.71,23.9-17.71,32.3-56.21,32.3H24.23c-23.9,0-28.5-10.8-20.8-31.6L180.52,26.9C188.23,4.6,198.23,0,220.52,0h87.8c22.3,0,32.3,5.4,40,25.4l177.8,489.7C533.93,535.8,526.93,546.6,503.82,546.6Z"/><path class="cls-1" d="M765.62,134.6c136.31,0,179.4,67.8,179.4,166.3V490.3c0,28.5-6.19,37-29.3,46.2-30.8,13.1-82.4,21.6-152.4,21.6-144.7,0-183.2-41.6-183.2-127.8,0-100.1,55.4-128.6,187.1-128.6,13.1,0,26.2.8,34.6.8V283.3c0-25.4-11.5-39.3-43.1-39.3-25.4,0-39.3,11.5-50,26.2-10,13.9-17.7,20-42.3,10L611,257.1c-20.8-9.2-27.7-20-16.2-42.3C622.43,161.6,679.43,134.6,765.62,134.6Z"/></g></g></svg>