<svg xmlns="http://www.w3.org/2000/svg" viewBox="0 0 225 714">
    <defs>
        <style>
            .cls-1{fill:#ffd669}
        </style>
    </defs>
    <title>
        Ресурс 5
    </title>
    <g id="Слой_2" data-name="Слой 2">
        <path class="cls-1" d="M220.5 180v369c0 114.8-64.5 165-190.5 165-22.5 0-30-7.5-30-29.2V621c0-22.5 7.5-30 30-30 36.8 0 51-18.8 51-51V180c0-21 6.8-28.5 29.2-28.5h81c22.6 0 29.3 7.5 29.3 28.5zM225 55.5v8.2c0 42-12.8 55.5-55.5 55.5H132c-42.8 0-55.5-13.5-55.5-55.5v-8.2C76.5 13.5 89.3 0 132 0h37.5C212.3 0 225 13.5 225 55.5z" id="Layer_1" data-name="Layer 1"/>
    </g>
</svg>
